<svg width="24" height="24" viewBox="0 0 24 24" fill="none" xmlns="http://www.w3.org/2000/svg">
<g clip-path="url(#clip0_5795_308)">
<path d="M23.8008 6.47177C23.6523 6.25403 23.4531 6.14516 23.2031 6.14516H7.28906L6.07031 1.8629C5.96094 1.47581 5.8125 1.14516 5.625 0.870968C5.4375 0.596774 5.23828 0.403226 5.02734 0.290323C4.81641 0.177419 4.63281 0.100806 4.47656 0.0604839C4.32031 0.0201613 4.16406 0 4.00781 0H0.796875C0.59375 0 0.421875 0.0725806 0.28125 0.217742C0.140625 0.362903 0.0703125 0.548387 0.0703125 0.774194C0.0703125 0.903226 0.101562 1.02823 0.164062 1.14919C0.226562 1.27016 0.316406 1.3629 0.433594 1.42742C0.550781 1.49194 0.671875 1.52419 0.796875 1.52419H4.00781C4.07031 1.52419 4.12891 1.53226 4.18359 1.54839C4.23828 1.56452 4.3125 1.63306 4.40625 1.75403C4.5 1.875 4.57812 2.05645 4.64062 2.29839L8.78906 18.0242C8.82031 18.121 8.87109 18.2137 8.94141 18.3024C9.01172 18.3911 9.09375 18.4597 9.1875 18.5081C9.28125 18.5565 9.38281 18.5806 9.49219 18.5806H19.6172C19.7734 18.5806 19.918 18.5323 20.0508 18.4355C20.1836 18.3387 20.2734 18.2177 20.3203 18.0726L23.9062 7.18548C23.9844 6.92742 23.9492 6.68952 23.8008 6.47177ZM19.1016 17.0323H10.0781L7.6875 7.69355H22.125L19.1016 17.0323ZM17.625 20.129C17.1094 20.129 16.668 20.3185 16.3008 20.6976C15.9336 21.0766 15.75 21.5323 15.75 22.0645C15.75 22.5968 15.9336 23.0524 16.3008 23.4315C16.668 23.8105 17.1094 24 17.625 24C18.1406 24 18.582 23.8105 18.9492 23.4315C19.3164 23.0524 19.5 22.5968 19.5 22.0645C19.5 21.5323 19.3164 21.0766 18.9492 20.6976C18.582 20.3185 18.1406 20.129 17.625 20.129ZM10.875 20.129C10.5312 20.129 10.2148 20.2177 9.92578 20.3952C9.63672 20.5726 9.41016 20.8065 9.24609 21.0968C9.08203 21.3871 9 21.7097 9 22.0645C9 22.5968 9.18359 23.0524 9.55078 23.4315C9.91797 23.8105 10.3594 24 10.875 24C11.3906 24 11.832 23.8105 12.1992 23.4315C12.5664 23.0524 12.75 22.5968 12.75 22.0645C12.75 21.9355 12.7383 21.8065 12.7148 21.6774C12.6914 21.5484 12.6562 21.4274 12.6094 21.3145C12.5625 21.2016 12.5039 21.0927 12.4336 20.9879C12.3633 20.8831 12.2852 20.7863 12.1992 20.6976C12.1133 20.6089 12.0195 20.5282 11.918 20.4556C11.8164 20.3831 11.7109 20.3226 11.6016 20.2742C11.4922 20.2258 11.375 20.1895 11.25 20.1653C11.125 20.1411 11 20.129 10.875 20.129Z" fill="#82B5D1"/>
</g>
<defs>
<clipPath id="clip0_5795_308">
<rect width="24" height="24" fill="white"/>
</clipPath>
</defs>
</svg>
