<svg width="50" height="50" viewBox="0 0 50 50" fill="none" xmlns="http://www.w3.org/2000/svg">
<path d="M30.4683 19.2534L30.8616 18.9447L30.8603 18.9431L30.4683 19.2534ZM31.3941 21.6059L30.8978 21.667L30.8982 21.67L31.3941 21.6059ZM27.6655 17.5939L27.5476 18.0798L27.5501 18.0804L27.6655 17.5939ZM26.2022 17.6897L25.865 17.3205L25.8639 17.3215L26.2022 17.6897ZM26.0818 18.7934L26.5067 18.5297L26.5028 18.5237L26.0818 18.7934ZM26.8864 19.2162L26.7901 19.7069L26.7959 19.708L26.8864 19.2162ZM28.3736 19.7177L28.6236 19.2847L28.6218 19.2837L28.3736 19.7177ZM29.6701 22.2359L30.1698 22.219L30.1698 22.2189L29.6701 22.2359ZM29.946 23.2125L29.5897 23.5633L29.5921 23.5658L29.946 23.2125ZM31.2904 23.0635L31.7135 23.33L31.7166 23.3249L31.2904 23.0635ZM31.4229 22.4179L30.9231 22.4031L30.9231 22.404L31.4229 22.4179ZM34.7446 22.6751L34.2455 22.7042L34.2456 22.7061L34.7446 22.6751ZM31.4055 15.7876L31.7199 15.3988L31.7194 15.3984L31.4055 15.7876ZM34.3176 24.4045L34.0848 23.9619L34.08 23.9645L34.3176 24.4045ZM33.2573 24.2403L33.6187 23.8947L33.6155 23.8914L33.2573 24.2403ZM33.0005 23.3177L32.5005 23.3145L32.5005 23.3148L33.0005 23.3177ZM32.2284 19.5882L31.7778 19.8048L31.7783 19.8058L32.2284 19.5882ZM29.7176 16.7114L29.44 17.1273L29.4405 17.1276L29.7176 16.7114ZM26.2826 15.5394L26.3261 15.0413L26.2826 15.5394ZM25.0546 14.9558L25.5188 14.7699L25.5165 14.7643L25.0546 14.9558ZM25.0958 14.1594L24.6753 13.8888L24.6723 13.8936L25.0958 14.1594ZM25.6005 13.7702L25.7381 14.2509L25.7405 14.2502L25.6005 13.7702ZM27.3563 13.919L27.456 13.4291L27.4537 13.4286L27.3563 13.919ZM38.1681 33.2945L38.5884 33.0237L38.5849 33.0184L38.1681 33.2945ZM38.4522 33.8638L37.9791 34.0257L37.9819 34.0334L38.4522 33.8638ZM32.7635 29.063L32.535 29.5077L32.5354 29.5079L32.7635 29.063ZM30.6699 28.5838L30.8053 29.0652L30.8104 29.0637L30.6699 28.5838ZM28.941 30.1114L29.3297 30.4259L29.3305 30.4249L28.941 30.1114ZM28.1026 31.0507L27.8251 30.6346L27.8177 30.6398L28.1026 31.0507ZM27.0321 31.3591L27.0291 31.8591H27.0321V31.3591ZM23.7022 30.1683L23.9627 29.7415L23.9622 29.7412L23.7022 30.1683ZM20.9029 27.7869L21.2724 27.4501L21.2716 27.4493L20.9029 27.7869ZM18.6955 24.6607L19.1437 24.4389L19.1432 24.438L18.6955 24.6607ZM18.1177 21.8001L18.5711 22.0109L18.5729 22.0068L18.1177 21.8001ZM18.326 21.4254L17.9545 21.0907L17.9462 21.0999L17.9384 21.1096L18.326 21.4254ZM19.3065 20.6142L18.9953 20.2228L18.9921 20.2255L19.3065 20.6142ZM20.6091 19.1436L21.0823 19.3053L21.0826 19.3045L20.6091 19.1436ZM20.4244 17.1038L20.8699 16.8767L20.8685 16.874L20.4244 17.1038ZM18.9371 14.7081L19.3476 14.4226L19.3468 14.4214L18.9371 14.7081ZM16.2372 11.3921L16.557 11.0078L16.5527 11.0043L16.2372 11.3921ZM13.9967 11.1455L13.8161 10.6792L13.8158 10.6794L13.9967 11.1455ZM10.6716 13.8163L10.2735 13.5137L10.2729 13.5145L10.6716 13.8163ZM9.729 16.098L10.2284 16.123L10.2284 16.1215L9.729 16.098ZM10.1032 17.8865L10.5655 17.6961L10.5654 17.6957L10.1032 17.8865ZM22.5607 34.0868L22.861 33.687L22.8609 33.687L22.5607 34.0868ZM31.7025 39.1201L31.5317 39.59L31.5319 39.59L31.7025 39.1201ZM35.2881 39.2719L35.5402 39.7037L35.5442 39.7013L35.2881 39.2719ZM37.2207 37.2889L37.6212 37.5882L37.622 37.5871L37.2207 37.2889ZM38.5612 35.0498L38.0724 34.9446L38.0719 34.9469L38.5612 35.0498ZM38.1555 23.3424L38.6553 23.3276L38.6551 23.324L38.1555 23.3424ZM37.2411 18.848L37.7079 18.6688L37.7077 18.6682L37.2411 18.848ZM38.1396 24.6648L38.6388 24.6931L38.6389 24.6909L38.1396 24.6648ZM37.8315 25.7951L37.4932 25.4269L37.4894 25.4304L37.8315 25.7951ZM36.5132 25.6463L36.0913 25.9148L36.0947 25.9199L36.5132 25.6463ZM36.3825 24.3682L36.8823 24.383L36.8823 24.3826L36.3825 24.3682ZM34.6187 17.5186L34.1937 17.782L34.1942 17.7828L34.6187 17.5186ZM27.7168 12.4956L27.8486 12.0133L27.8484 12.0133L27.7168 12.4956ZM25.2858 12.0211L25.3525 11.5255L25.3507 11.5253L25.2858 12.0211ZM24.321 11.7985L24.0513 12.2196L24.059 12.2243L24.321 11.7985ZM24.313 10.3693L24.5861 10.7881L24.5905 10.7852L24.313 10.3693ZM25.5744 10.2987L25.5109 10.7946L25.5124 10.7948L25.5744 10.2987ZM31.9093 12.4005L32.1707 11.9743L32.1704 11.9741L31.9093 12.4005ZM35.0062 15.1001L35.3901 14.7797L35.3888 14.7782L35.0062 15.1001ZM49.5 24.6475C49.5 11.1165 38.531 0.147469 25 0.147469V1.14747C37.9787 1.14747 48.5 11.6688 48.5 24.6475H49.5ZM25 49.1475C38.531 49.1475 49.5 38.1784 49.5 24.6475H48.5C48.5 37.6262 37.9787 48.1475 25 48.1475V49.1475ZM0.5 24.6475C0.5 38.1784 11.469 49.1475 25 49.1475V48.1475C12.0213 48.1475 1.5 37.6262 1.5 24.6475H0.5ZM25 0.147469C11.469 0.147469 0.5 11.1165 0.5 24.6475H1.5C1.5 11.6688 12.0213 1.14747 25 1.14747V0.147469ZM30.0749 19.5621C30.5283 20.1398 30.7905 20.7952 30.8979 21.667L31.8904 21.5448C31.7642 20.5199 31.4435 19.6861 30.8616 18.9447L30.0749 19.5621ZM27.5501 18.0804C28.7357 18.3617 29.4874 18.8197 30.0762 19.5637L30.8603 18.9431C30.1048 17.9885 29.1386 17.4295 27.7809 17.1074L27.5501 18.0804ZM26.5394 18.0589C26.6088 17.9955 26.6612 17.9697 26.7684 17.9626C26.9117 17.9531 27.1391 17.9807 27.5476 18.0798L27.7834 17.108C27.3632 17.006 27.0087 16.9445 26.7025 16.9648C26.3602 16.9874 26.0953 17.1101 25.865 17.3205L26.5394 18.0589ZM26.5028 18.5237C26.4674 18.4685 26.4427 18.375 26.4544 18.2666C26.4663 18.1569 26.509 18.0868 26.5405 18.0579L25.8639 17.3215C25.6162 17.5491 25.4921 17.8643 25.4602 18.1592C25.4282 18.4553 25.4829 18.7854 25.6608 19.0632L26.5028 18.5237ZM26.9827 18.7256C26.7474 18.6794 26.6448 18.6447 26.5909 18.6166C26.5619 18.6015 26.5432 18.5886 26.5066 18.5297L25.657 19.0572C25.7705 19.2399 25.9134 19.3912 26.1288 19.5035C26.3193 19.6027 26.544 19.6586 26.7901 19.7069L26.9827 18.7256ZM28.6218 19.2837C28.1569 19.0178 27.6566 18.8495 26.9769 18.7245L26.7959 19.708C27.3985 19.8188 27.7843 19.9567 28.1254 20.1518L28.6218 19.2837ZM30.1698 22.2189C30.1469 21.5467 30.0274 20.9615 29.7712 20.4639C29.511 19.9587 29.1257 19.5746 28.6236 19.2847L28.1236 20.1507C28.477 20.3548 28.7186 20.6041 28.8821 20.9217C29.0495 21.2468 29.1506 21.6739 29.1704 22.253L30.1698 22.2189ZM30.3022 22.8617C30.2471 22.8057 30.2336 22.7797 30.2197 22.7306C30.1971 22.6504 30.1798 22.5132 30.1698 22.219L29.1704 22.2529C29.1803 22.5463 29.1983 22.7931 29.2573 23.0022C29.3251 23.2424 29.4396 23.4109 29.5897 23.5633L30.3022 22.8617ZM30.8673 22.797C30.752 22.9801 30.4544 23.014 30.2998 22.8592L29.5921 23.5658C30.1983 24.1728 31.2545 24.0586 31.7134 23.33L30.8673 22.797ZM30.9231 22.404C30.9173 22.6111 30.9105 22.6852 30.9023 22.7249C30.9001 22.7354 30.9017 22.7409 30.8641 22.8021L31.7166 23.3249C31.7844 23.2143 31.8467 23.0964 31.8817 22.9269C31.9106 22.7866 31.9174 22.6237 31.9227 22.4319L30.9231 22.404ZM30.8982 21.67C30.9192 21.8317 30.9301 22.1707 30.9231 22.4031L31.9227 22.4328C31.9305 22.1712 31.9201 21.7749 31.89 21.5417L30.8982 21.67ZM35.2438 22.6461C35.0676 19.6171 33.8757 17.1422 31.7199 15.3988L31.0911 16.1764C33.0028 17.7223 34.0837 19.9224 34.2455 22.7042L35.2438 22.6461ZM34.5503 24.847C34.6992 24.7687 34.8414 24.6636 34.9588 24.5132C35.0755 24.3636 35.1489 24.1932 35.1944 24.0097C35.2802 23.6641 35.2791 23.2145 35.2437 22.6441L34.2456 22.7061C34.2812 23.2801 34.2685 23.589 34.2238 23.7689C34.2042 23.8481 34.1827 23.8823 34.1704 23.898C34.1587 23.913 34.1377 23.9341 34.0848 23.9619L34.5503 24.847ZM32.896 24.5858C33.336 25.046 33.9943 25.1473 34.5551 24.8444L34.08 23.9645C33.9123 24.0551 33.7451 24.0268 33.6187 23.8947L32.896 24.5858ZM32.5005 23.3148C32.4975 23.8205 32.5712 24.2524 32.8992 24.5891L33.6155 23.8914C33.5683 23.8429 33.4979 23.7479 33.5004 23.3207L32.5005 23.3148ZM31.7783 19.8058C32.223 20.7258 32.5083 22.0884 32.5005 23.3145L33.5004 23.3209C33.5091 21.9675 33.2001 20.4495 32.6786 19.3706L31.7783 19.8058ZM29.4405 17.1276C30.4542 17.8023 31.2581 18.7237 31.7778 19.8048L32.6791 19.3716C32.0805 18.1263 31.1557 17.0679 29.9946 16.2951L29.4405 17.1276ZM26.239 16.0375C27.3839 16.1377 28.5627 16.5417 29.44 17.1272L29.9951 16.2955C28.9677 15.6098 27.6255 15.155 26.3261 15.0413L26.239 16.0375ZM24.5904 15.1416C24.7073 15.4336 24.8975 15.6655 25.2138 15.8157C25.4897 15.9468 25.8366 16.0023 26.239 16.0375L26.3261 15.0413C25.9358 15.0072 25.7448 14.9609 25.6429 14.9125C25.5815 14.8833 25.5541 14.8581 25.5188 14.7699L24.5904 15.1416ZM24.6723 13.8936C24.5522 14.0848 24.5095 14.3247 24.4992 14.5106C24.4884 14.7038 24.5071 14.9407 24.5927 15.1473L25.5165 14.7643C25.5142 14.7587 25.5068 14.7369 25.5016 14.6965C25.4967 14.6578 25.495 14.6126 25.4976 14.5661C25.5002 14.5194 25.5067 14.4786 25.5143 14.4482C25.5228 14.4144 25.5285 14.4105 25.5192 14.4253L24.6723 13.8936ZM25.4629 13.2895C25.2964 13.3371 25.1393 13.4338 25.0202 13.5255C24.8985 13.6191 24.768 13.7449 24.6753 13.8888L25.5162 14.4301C25.528 14.4116 25.567 14.3665 25.63 14.318C25.6588 14.2959 25.6861 14.2781 25.709 14.2654C25.7335 14.2518 25.7434 14.2493 25.7381 14.2509L25.4629 13.2895ZM27.4537 13.4286C27.1512 13.3685 26.7364 13.3165 26.3784 13.2858C26.1984 13.2703 26.0254 13.2596 25.882 13.2564C25.8107 13.2548 25.7413 13.2549 25.6792 13.2579C25.6287 13.2604 25.543 13.2661 25.4605 13.2902L25.7405 14.2502C25.7019 14.2614 25.6866 14.2587 25.7279 14.2567C25.7576 14.2553 25.8014 14.2548 25.8594 14.2561C25.9749 14.2588 26.1255 14.2678 26.293 14.2821C26.63 14.311 27.0052 14.3591 27.2588 14.4095L27.4537 13.4286ZM31.7194 15.3984C30.507 14.4207 29.0472 13.753 27.456 13.4291L27.2565 14.409C28.7018 14.7032 30.0122 15.3063 31.0916 16.1768L31.7194 15.3984ZM37.7477 33.5653C37.827 33.6883 37.9388 33.9077 37.9792 34.0257L38.9253 33.7019C38.852 33.4877 38.6986 33.1948 38.5884 33.0237L37.7477 33.5653ZM32.5354 29.5079C33.2928 29.8962 34.4649 30.7052 35.5341 31.5422C36.0651 31.9579 36.5616 32.3734 36.9594 32.7374C37.3687 33.1119 37.6393 33.4016 37.7512 33.5706L38.5849 33.0184C38.3984 32.7368 38.0444 32.3748 37.6345 31.9997C37.2131 31.614 36.696 31.1818 36.1506 30.7548C35.067 29.9066 33.8352 29.0505 32.9916 28.618L32.5354 29.5079ZM30.8104 29.0637C31.1145 28.9747 31.638 29.0469 32.535 29.5077L32.992 28.6182C32.0607 28.1398 31.2295 27.899 30.5294 28.104L30.8104 29.0637ZM29.3305 30.4249C29.7857 29.8593 30.0581 29.5478 30.2733 29.3576C30.4648 29.1884 30.6028 29.1221 30.8053 29.0652L30.5345 28.1025C30.197 28.1974 29.9229 28.3328 29.6111 28.6083C29.3231 28.8628 29.001 29.2392 28.5514 29.7979L29.3305 30.4249ZM28.3801 31.4666C28.455 31.4166 28.5318 31.3399 28.5816 31.289C28.6439 31.2254 28.7171 31.1459 28.7957 31.0577C28.9535 30.8806 29.1433 30.6562 29.3297 30.4259L28.5523 29.7969C28.374 30.0173 28.1944 30.2293 28.049 30.3926C27.976 30.4745 27.9142 30.5413 27.867 30.5895C27.8073 30.6505 27.7999 30.6515 27.8252 30.6347L28.3801 31.4666ZM27.0321 31.8591C27.2614 31.8591 27.5151 31.8143 27.7409 31.7495C27.9629 31.6857 28.2025 31.5899 28.3875 31.4615L27.8177 30.6398C27.7564 30.6823 27.6312 30.7406 27.4649 30.7883C27.3023 30.835 27.1439 30.8591 27.0321 30.8591V31.8591ZM23.4417 30.5951C24.0249 30.9511 24.6909 31.2619 25.3161 31.4853C25.9309 31.7051 26.5499 31.8562 27.0291 31.8591L27.0352 30.8591C26.7233 30.8572 26.2292 30.7497 25.6527 30.5437C25.0866 30.3414 24.4832 30.0592 23.9627 29.7415L23.4417 30.5951ZM20.5333 28.1237C21.4011 29.0758 22.5358 30.0437 23.4423 30.5954L23.9622 29.7412C23.154 29.2493 22.091 28.3483 21.2724 27.4501L20.5333 28.1237ZM18.2474 24.8825C18.8077 26.0145 19.5145 27.0111 20.5341 28.1246L21.2716 27.4493C20.3018 26.3901 19.654 25.4701 19.1437 24.4389L18.2474 24.8825ZM17.6643 21.5894C17.462 22.0245 17.4405 22.5076 17.5489 23.0417C17.6558 23.5682 17.8946 24.1733 18.2479 24.8834L19.1432 24.438C18.805 23.7582 18.6103 23.2437 18.5289 22.8428C18.4491 22.4494 18.4844 22.1972 18.5711 22.0109L17.6643 21.5894ZM17.9384 21.1096C17.8532 21.2141 17.7369 21.4293 17.6624 21.5934L18.5729 22.0068C18.602 21.9428 18.6369 21.8748 18.6687 21.8181C18.6845 21.79 18.6981 21.7671 18.7085 21.7505C18.7212 21.7304 18.7224 21.7305 18.7137 21.7412L17.9384 21.1096ZM18.9921 20.2255C18.7452 20.4252 18.5093 20.6173 18.3294 20.7658C18.2395 20.8399 18.1623 20.9043 18.1041 20.9537C18.0621 20.9894 17.9933 21.0477 17.9545 21.0907L18.6976 21.76C18.6801 21.7794 18.6829 21.7742 18.7519 21.7156C18.8045 21.6708 18.8774 21.6101 18.9658 21.5371C19.1423 21.3915 19.3753 21.2017 19.621 21.0029L18.9921 20.2255ZM20.136 18.9819C20.0592 19.2066 20.0028 19.3163 19.8785 19.4565C19.7303 19.6239 19.4856 19.8329 18.9953 20.2228L19.6177 21.0055C20.0938 20.627 20.4105 20.364 20.6269 20.1198C20.8673 19.8485 20.9791 19.6072 21.0823 19.3053L20.136 18.9819ZM19.979 17.3308C20.2744 17.9105 20.3155 18.4539 20.1357 18.9827L21.0826 19.3045C21.3575 18.4955 21.2756 17.6727 20.8699 16.8767L19.979 17.3308ZM18.5267 14.9937C19.0311 15.7188 19.7239 16.8378 19.9804 17.3335L20.8685 16.874C20.585 16.326 19.8662 15.168 19.3476 14.4226L18.5267 14.9937ZM15.9173 11.7764C15.9641 11.8154 16.1049 11.9633 16.3284 12.2203C16.5397 12.4635 16.7996 12.7741 17.0716 13.108C17.6176 13.7783 18.1994 14.5261 18.5275 14.9948L19.3468 14.4214C18.9975 13.9224 18.3975 13.1522 17.8469 12.4764C17.5706 12.1372 17.3035 11.8179 17.083 11.5642C16.8745 11.3244 16.6784 11.1088 16.557 11.0078L15.9173 11.7764ZM14.1773 11.6117C14.9025 11.3308 15.4816 11.422 15.9216 11.7799L16.5527 11.0043C15.7801 10.3756 14.8058 10.2959 13.8161 10.6792L14.1773 11.6117ZM11.0696 14.1188C11.3976 13.6874 11.9682 13.1365 12.58 12.6446C13.1983 12.1475 13.7995 11.7583 14.1776 11.6116L13.8158 10.6794C13.2893 10.8837 12.5903 11.3532 11.9534 11.8653C11.3099 12.3827 10.6703 12.9917 10.2735 13.5137L11.0696 14.1188ZM10.2284 16.1215C10.2603 15.4442 10.4578 14.927 11.0702 14.1181L10.2729 13.5145C9.57803 14.4323 9.27356 15.139 9.22955 16.0746L10.2284 16.1215ZM10.5654 17.6957C10.391 17.2732 10.3053 17.0293 10.2617 16.8206C10.2203 16.6227 10.2127 16.4363 10.2284 16.123L9.22962 16.0731C9.21212 16.4239 9.21638 16.7071 9.2828 17.0251C9.34697 17.3323 9.46492 17.6506 9.64104 18.0773L10.5654 17.6957ZM22.8609 33.687C17.312 29.5201 13.2747 24.2753 10.5655 17.6961L9.64087 18.0769C12.4168 24.8184 16.5644 30.2093 22.2605 34.4866L22.8609 33.687ZM31.8732 38.6501C28.7646 37.5205 25.7621 35.8661 22.861 33.687L22.2604 34.4866C25.2327 36.7192 28.3216 38.4235 31.5317 39.59L31.8732 38.6501ZM35.0361 38.84C34.6347 39.0743 34.2927 39.1721 33.8539 39.1535C33.3864 39.1338 32.786 38.9815 31.8731 38.6501L31.5319 39.59C32.4615 39.9275 33.1826 40.1261 33.8117 40.1527C34.4694 40.1804 34.999 40.0196 35.5402 39.7037L35.0361 38.84ZM36.8202 36.9896C36.562 37.335 36.1938 37.7547 35.8395 38.1181C35.4712 38.496 35.1672 38.7618 35.0321 38.8424L35.5442 39.7013C35.8069 39.5447 36.1945 39.1866 36.5556 38.8161C36.9308 38.4312 37.3299 37.978 37.6212 37.5882L36.8202 36.9896ZM38.0719 34.9469C38.0406 35.0957 37.9633 35.2952 37.7674 35.6227C37.5712 35.9507 37.2722 36.3813 36.8194 36.9907L37.622 37.5871C38.0787 36.9725 38.4025 36.5089 38.6256 36.136C38.8489 35.7626 38.987 35.4546 39.0505 35.1526L38.0719 34.9469ZM37.9819 34.0334C38.0255 34.1544 38.0626 34.3303 38.0799 34.5158C38.0977 34.7056 38.0905 34.8601 38.0724 34.9446L39.05 35.1549C39.0982 34.9311 39.0981 34.6634 39.0756 34.4227C39.0527 34.1777 39.0021 33.9148 38.9226 33.6942L37.9819 34.0334ZM38.6551 23.324C38.5924 21.6259 38.3048 20.2235 37.7079 18.6688L36.7743 19.0272C37.3314 20.4783 37.5972 21.772 37.6558 23.3609L38.6551 23.324ZM38.6389 24.6909C38.6607 24.2739 38.6653 23.6655 38.6552 23.3276L37.6557 23.3572C37.6649 23.6687 37.6606 24.2499 37.6403 24.6388L38.6389 24.6909ZM38.1698 26.1632C38.3345 26.0119 38.4613 25.8446 38.5349 25.5745C38.595 25.3543 38.6175 25.0685 38.6388 24.6931L37.6404 24.6365C37.6179 25.0336 37.5976 25.2107 37.5701 25.3114C37.5595 25.3504 37.5512 25.3636 37.5481 25.3683C37.5436 25.3753 37.532 25.3912 37.4932 25.4269L38.1698 26.1632ZM36.0947 25.9199C36.328 26.2769 36.7214 26.454 37.081 26.4948C37.4414 26.5357 37.8633 26.4509 38.1736 26.1597L37.4894 25.4304C37.4423 25.4746 37.3371 25.5175 37.1938 25.5012C37.0497 25.4849 36.9626 25.42 36.9317 25.3728L36.0947 25.9199ZM35.8828 24.3535C35.8697 24.7967 35.866 25.0972 35.8888 25.3163C35.9157 25.5737 35.9812 25.7416 36.0914 25.9148L36.935 25.3779C36.9073 25.3343 36.8941 25.3144 36.8834 25.2125C36.8688 25.0724 36.8688 24.8422 36.8823 24.383L35.8828 24.3535ZM34.1942 17.7828C35.4386 19.7825 35.9568 21.7743 35.8827 24.3539L36.8823 24.3826C36.9616 21.6232 36.4 19.4347 35.0432 17.2544L34.1942 17.7828ZM27.5849 12.9779C30.4948 13.7734 32.7107 15.3894 34.1937 17.782L35.0437 17.2552C33.4183 14.6329 30.9848 12.8706 27.8486 12.0133L27.5849 12.9779ZM25.2191 12.5166C26.2124 12.6503 26.8398 12.7746 27.5852 12.978L27.8484 12.0133C27.052 11.796 26.38 11.6639 25.3525 11.5255L25.2191 12.5166ZM24.059 12.2243C24.3292 12.3907 24.5877 12.434 25.2209 12.5168L25.3507 11.5253C24.6676 11.4359 24.6377 11.4063 24.5831 11.3727L24.059 12.2243ZM24.0398 9.95047C23.628 10.2191 23.4468 10.6725 23.4495 11.089C23.4523 11.5052 23.639 11.9555 24.0514 12.2196L24.5907 11.3775C24.5123 11.3273 24.4504 11.2225 24.4495 11.0824C24.4486 10.9426 24.5088 10.8385 24.5861 10.788L24.0398 9.95047ZM25.6379 9.80272C25.2356 9.7512 24.9372 9.71936 24.7028 9.73201C24.4245 9.74703 24.2294 9.82394 24.0354 9.95335L24.5905 10.7852C24.649 10.7461 24.6731 10.7351 24.7567 10.7306C24.8843 10.7237 25.0904 10.7408 25.5109 10.7946L25.6379 9.80272ZM32.1704 11.9741C30.3315 10.848 28.1084 10.1114 25.6364 9.80253L25.5124 10.7948C27.866 11.0889 29.9488 11.7863 31.6482 12.8269L32.1704 11.9741ZM35.3888 14.7782C34.3278 13.5171 33.4881 12.7822 32.1707 11.9743L31.6479 12.8268C32.8665 13.5741 33.6259 14.2362 34.6236 15.422L35.3888 14.7782ZM37.7077 18.6682C37.1169 17.1349 36.5112 16.1233 35.3901 14.7797L34.6223 15.4204C35.6788 16.6866 36.2261 17.6044 36.7746 19.0278L37.7077 18.6682Z" fill="#82B5D1"/>
</svg>
