<svg width="50" height="50" viewBox="0 0 50 50" fill="none" xmlns="http://www.w3.org/2000/svg">
<path d="M26.2555 32.5235V33.0235H26.2826L26.3097 33.0206L26.2555 32.5235ZM26.9541 32.2237L27.3169 32.5677L27.3171 32.5676L26.9541 32.2237ZM24.7254 32.5235V32.0235H24.7107L24.696 32.0244L24.7254 32.5235ZM18.376 29.6844L18.0186 30.0341L18.0187 30.0342L18.376 29.6844ZM12.2695 19.793L11.8026 19.9719L11.8066 19.9823L11.8111 19.9926L12.2695 19.793ZM12.2833 19.1539L12.662 19.4803L12.6626 19.4796L12.2833 19.1539ZM13.0346 18.9044L13.0314 18.4043L13.0212 18.4046L13.0346 18.9044ZM16.6919 18.881L16.7712 18.3874L16.7303 18.3808L16.6888 18.3811L16.6919 18.881ZM17.2829 19.1146L17.5758 18.7093L17.5758 18.7093L17.2829 19.1146ZM17.601 19.5361L18.0648 19.3493L18.0627 19.3442L17.601 19.5361ZM18.9745 22.331L18.5438 22.5849L18.5438 22.585L18.9745 22.331ZM21.7329 25.2119L21.4971 24.771L21.4967 24.7712L21.7329 25.2119ZM22.2625 21.5481L21.7626 21.5423L21.7623 21.5625L21.7637 21.5828L22.2625 21.5481ZM21.8819 19.8385L22.2823 19.539L22.2821 19.5388L21.8819 19.8385ZM20.7462 19.278L20.6813 19.7738L20.6815 19.7738L20.7462 19.278ZM21.3159 18.5713L21.5322 19.0222L21.5322 19.0222L21.3159 18.5713ZM24.51 18.2505L24.5152 17.7506L24.515 17.7506L24.51 18.2505ZM26.3068 18.4263L26.191 18.9127L26.1916 18.9128L26.3068 18.4263ZM27.1817 20.9831L26.6821 20.9626L27.1817 20.9831ZM27.1308 23.1011L27.6306 23.1151V23.1151L27.1308 23.1011ZM27.629 25.1959L27.361 25.618L27.3622 25.6188L27.629 25.1959ZM30.3085 22.3654L30.7372 22.6227L30.7373 22.6226L30.3085 22.3654ZM31.7296 19.4194L31.2774 19.206L31.2694 19.2231L31.2626 19.2408L31.7296 19.4194ZM32.0702 19.0138L31.8172 18.5825L31.8165 18.5829L32.0702 19.0138ZM32.5673 18.9277L32.5011 19.4234L32.5356 19.4279L32.5703 19.4277L32.5673 18.9277ZM36.4162 18.9044L36.4193 19.4044L36.4471 19.4042L36.4748 19.401L36.4162 18.9044ZM37.7597 19.2817L37.2898 19.4524L37.2902 19.4536L37.7597 19.2817ZM35.7551 23.1323L35.3579 22.8287L35.3578 22.8288L35.7551 23.1323ZM33.604 26.439L34.1013 26.3868V26.3868L33.604 26.439ZM35.0302 28.1481L35.3669 27.7786L35.3668 27.7784L35.0302 28.1481ZM37.549 30.9951L37.1126 31.2391L37.1126 31.2391L37.549 30.9951ZM37.5719 31.0352L37.998 30.7735L37.9968 30.7716L37.5719 31.0352ZM36.6316 32.5235L36.6384 33.0235L36.6501 33.0233L36.6618 33.0226L36.6316 32.5235ZM33.2121 32.5702L33.2053 32.0703L33.1606 32.0709L33.1167 32.0794L33.2121 32.5702ZM31.5118 32.0614L31.7912 31.6468L31.791 31.6467L31.5118 32.0614ZM30.0394 30.6333L29.6656 30.9654L30.0394 30.6333ZM28.0873 29.2518L27.9386 28.7744L27.9383 28.7745L28.0873 29.2518ZM27.1632 31.5637L26.6633 31.5708L26.6633 31.5724L27.1632 31.5637ZM1.5 24.6475C1.5 11.6688 12.0213 1.14746 25 1.14746V0.147461C11.469 0.147461 0.5 11.1165 0.5 24.6475H1.5ZM25 48.1475C12.0213 48.1475 1.5 37.6262 1.5 24.6475H0.5C0.5 38.1784 11.469 49.1475 25 49.1475V48.1475ZM48.5 24.6475C48.5 37.6262 37.9787 48.1475 25 48.1475V49.1475C38.531 49.1475 49.5 38.1784 49.5 24.6475H48.5ZM25 1.14746C37.9787 1.14746 48.5 11.6688 48.5 24.6475H49.5C49.5 11.1165 38.531 0.147461 25 0.147461V1.14746ZM26.2555 32.5235C26.3097 33.0206 26.3098 33.0206 26.3099 33.0206C26.31 33.0206 26.3101 33.0206 26.3102 33.0205C26.3103 33.0205 26.3105 33.0205 26.3107 33.0205C26.3111 33.0204 26.3115 33.0204 26.3119 33.0204C26.3127 33.0203 26.3137 33.0201 26.3148 33.02C26.317 33.0198 26.3196 33.0194 26.3227 33.0191C26.3288 33.0183 26.3368 33.0173 26.3463 33.0159C26.3653 33.0132 26.3909 33.0092 26.4216 33.0036C26.4824 32.9924 26.5662 32.9743 26.6605 32.9458C26.8339 32.8935 27.1088 32.7871 27.3169 32.5677L26.5914 31.8796C26.5628 31.9097 26.4883 31.9533 26.3716 31.9885C26.3208 32.0038 26.2743 32.0139 26.2412 32.02C26.2248 32.023 26.2125 32.0249 26.2053 32.0259C26.2017 32.0264 26.1995 32.0267 26.1987 32.0268C26.1984 32.0268 26.1984 32.0268 26.1988 32.0268C26.199 32.0267 26.1993 32.0267 26.1997 32.0267C26.1999 32.0266 26.2001 32.0266 26.2004 32.0266C26.2005 32.0266 26.2007 32.0266 26.2008 32.0265C26.2009 32.0265 26.201 32.0265 26.201 32.0265C26.2011 32.0265 26.2013 32.0265 26.2555 32.5235ZM24.7254 33.0235H26.2555V32.0235H24.7254V33.0235ZM18.0187 30.0342C19.5785 31.6278 21.2493 32.3769 22.5349 32.7259C23.1768 32.9001 23.7228 32.9747 24.1119 33.0056C24.3066 33.0211 24.4625 33.0256 24.572 33.0262C24.6268 33.0264 24.6701 33.0257 24.7008 33.0248C24.7162 33.0244 24.7285 33.0239 24.7375 33.0235C24.742 33.0233 24.7458 33.0232 24.7486 33.023C24.7501 33.0229 24.7513 33.0229 24.7524 33.0228C24.7529 33.0228 24.7533 33.0228 24.7538 33.0227C24.754 33.0227 24.7542 33.0227 24.7543 33.0227C24.7546 33.0227 24.7548 33.0227 24.7254 32.5235C24.696 32.0244 24.6962 32.0244 24.6964 32.0244C24.6964 32.0244 24.6966 32.0244 24.6967 32.0244C24.6969 32.0244 24.6971 32.0243 24.6972 32.0243C24.6974 32.0243 24.6974 32.0243 24.6972 32.0243C24.6969 32.0244 24.6957 32.0244 24.6937 32.0245C24.6898 32.0247 24.6828 32.025 24.6727 32.0252C24.6526 32.0258 24.6204 32.0264 24.577 32.0262C24.4904 32.0257 24.3593 32.0221 24.191 32.0088C23.8544 31.982 23.3705 31.9165 22.7968 31.7608C21.6511 31.4498 20.1473 30.7793 18.7333 29.3347L18.0187 30.0342ZM12.2695 19.793C11.8111 19.9926 11.8111 19.9927 11.8112 19.9928C11.8112 19.9928 11.8113 19.993 11.8113 19.9931C11.8114 19.9934 11.8116 19.9937 11.8118 19.9942C11.8122 19.9952 11.8128 19.9965 11.8136 19.9982C11.8151 20.0017 11.8173 20.0067 11.8202 20.0133C11.8259 20.0264 11.8344 20.0456 11.8456 20.0707C11.8679 20.1209 11.9008 20.1944 11.9437 20.2889C12.0295 20.4778 12.1554 20.7505 12.3164 21.0878C12.6384 21.7622 13.1018 22.6961 13.6676 23.7348C14.7932 25.8014 16.3466 28.3251 18.0186 30.0341L18.7334 29.3348C17.1625 27.729 15.6626 25.307 14.5458 23.2565C13.9903 22.2368 13.5351 21.3193 13.2188 20.657C13.0608 20.3259 12.9376 20.059 12.8541 19.8753C12.8124 19.7834 12.7806 19.7124 12.7594 19.6646C12.7488 19.6407 12.7408 19.6227 12.7355 19.6107C12.7329 19.6047 12.731 19.6002 12.7297 19.5973C12.7291 19.5959 12.7286 19.5948 12.7283 19.5942C12.7282 19.5939 12.7281 19.5936 12.728 19.5935C12.728 19.5934 12.728 19.5934 12.728 19.5934C12.728 19.5934 12.728 19.5934 12.2695 19.793ZM11.9046 18.8274C11.6622 19.1086 11.6926 19.4685 11.7142 19.6214C11.7279 19.7182 11.7492 19.8027 11.7664 19.8619C11.7751 19.8921 11.7833 19.9172 11.7896 19.9357C11.7928 19.9451 11.7956 19.9528 11.7978 19.9589C11.7989 19.9619 11.7999 19.9645 11.8007 19.9667C11.8011 19.9678 11.8015 19.9688 11.8018 19.9696C11.8019 19.9701 11.8021 19.9705 11.8022 19.9708C11.8023 19.971 11.8024 19.9712 11.8024 19.9714C11.8025 19.9715 11.8025 19.9716 11.8025 19.9716C11.8026 19.9718 11.8026 19.9719 12.2695 19.793C12.7364 19.6141 12.7365 19.6142 12.7365 19.6144C12.7365 19.6144 12.7366 19.6145 12.7366 19.6146C12.7367 19.6147 12.7367 19.6149 12.7368 19.615C12.7369 19.6153 12.737 19.6155 12.7371 19.6157C12.7372 19.6162 12.7374 19.6165 12.7375 19.6168C12.7377 19.6173 12.7377 19.6175 12.7377 19.6173C12.7375 19.6169 12.7369 19.6153 12.7359 19.6124C12.7339 19.6066 12.7306 19.5963 12.7266 19.5828C12.7185 19.5546 12.7096 19.5182 12.7043 19.4813C12.6988 19.442 12.6997 19.4184 12.7009 19.4102C12.702 19.402 12.6992 19.4372 12.662 19.4803L11.9046 18.8274ZM13.0346 18.9044C13.0212 18.4046 13.0211 18.4046 13.021 18.4046C13.0209 18.4046 13.0208 18.4046 13.0207 18.4046C13.0206 18.4046 13.0204 18.4046 13.0202 18.4046C13.0199 18.4046 13.0195 18.4046 13.0191 18.4046C13.0183 18.4047 13.0173 18.4047 13.0162 18.4047C13.014 18.4048 13.0113 18.4049 13.0081 18.405C13.0016 18.4053 12.9931 18.4057 12.9827 18.4063C12.9619 18.4074 12.9336 18.4093 12.8995 18.4125C12.8323 18.4187 12.7386 18.4301 12.635 18.4511C12.5331 18.4718 12.4098 18.5042 12.288 18.5566C12.1701 18.6074 12.0225 18.6902 11.904 18.8281L12.6626 19.4796C12.6449 19.5003 12.6416 19.4931 12.6835 19.4751C12.7215 19.4587 12.7733 19.4434 12.8341 19.4311C12.8931 19.4191 12.9494 19.4121 12.9915 19.4082C13.0121 19.4063 13.0283 19.4053 13.0385 19.4047C13.0435 19.4044 13.0469 19.4043 13.0486 19.4042C13.0495 19.4042 13.0498 19.4042 13.0497 19.4042C13.0497 19.4042 13.0495 19.4042 13.0492 19.4042C13.0491 19.4042 13.0489 19.4042 13.0487 19.4042C13.0486 19.4042 13.0485 19.4042 13.0484 19.4042C13.0483 19.4042 13.0482 19.4042 13.0482 19.4042C13.0481 19.4042 13.048 19.4042 13.0346 18.9044ZM16.6888 18.3811L13.0314 18.4044L13.0378 19.4044L16.6951 19.381L16.6888 18.3811ZM17.5758 18.7093C17.3897 18.5749 17.1838 18.4969 17.0425 18.4532C16.9685 18.4304 16.9042 18.4145 16.8573 18.4042C16.8337 18.399 16.8142 18.3951 16.7996 18.3924C16.7923 18.391 16.7862 18.3899 16.7815 18.3891C16.7791 18.3887 16.777 18.3883 16.7753 18.388C16.7745 18.3879 16.7737 18.3878 16.773 18.3877C16.7727 18.3876 16.7724 18.3875 16.7721 18.3875C16.7719 18.3875 16.7718 18.3875 16.7716 18.3874C16.7716 18.3874 16.7715 18.3874 16.7714 18.3874C16.7713 18.3874 16.7712 18.3874 16.6919 18.881C16.6126 19.3747 16.6126 19.3747 16.6125 19.3747C16.6124 19.3747 16.6123 19.3747 16.6123 19.3747C16.6122 19.3746 16.6121 19.3746 16.612 19.3746C16.6117 19.3746 16.6115 19.3745 16.6114 19.3745C16.611 19.3744 16.6108 19.3744 16.6106 19.3744C16.6102 19.3743 16.6101 19.3743 16.6103 19.3743C16.6107 19.3744 16.6123 19.3747 16.6149 19.3752C16.6201 19.3761 16.6294 19.378 16.6419 19.3807C16.6673 19.3863 16.7045 19.3954 16.7474 19.4087C16.8399 19.4373 16.9295 19.4761 16.9901 19.5198L17.5758 18.7093ZM17.601 19.5361C18.0627 19.3442 18.0626 19.3441 18.0626 19.344C18.0626 19.344 18.0625 19.3438 18.0625 19.3438C18.0624 19.3436 18.0624 19.3435 18.0623 19.3433C18.0622 19.343 18.062 19.3427 18.0619 19.3424C18.0616 19.3417 18.0613 19.341 18.061 19.3401C18.0603 19.3385 18.0594 19.3366 18.0585 19.3344C18.0566 19.3301 18.0542 19.3247 18.0514 19.3183C18.0456 19.3056 18.0378 19.2889 18.028 19.269C18.0085 19.2297 17.9803 19.1765 17.9433 19.1169C17.8738 19.005 17.7534 18.8376 17.5758 18.7093L16.9901 19.5198C17.0166 19.539 17.0552 19.5824 17.0937 19.6444C17.1107 19.6718 17.1237 19.6963 17.1319 19.713C17.136 19.7211 17.1387 19.727 17.14 19.7298C17.1406 19.7312 17.1409 19.7319 17.1408 19.7316C17.1407 19.7315 17.1406 19.7311 17.1403 19.7305C17.1402 19.7302 17.14 19.7299 17.1399 19.7295C17.1398 19.7293 17.1397 19.7291 17.1396 19.7288C17.1395 19.7287 17.1395 19.7286 17.1394 19.7285C17.1394 19.7284 17.1394 19.7283 17.1394 19.7283C17.1393 19.7282 17.1393 19.7281 17.601 19.5361ZM19.4052 22.0771C19.0257 21.4332 18.6901 20.751 18.4484 20.2265C18.3279 19.965 18.2314 19.7445 18.1653 19.5897C18.1323 19.5124 18.1069 19.4516 18.0899 19.4105C18.0813 19.3899 18.0749 19.3743 18.0707 19.364C18.0686 19.3588 18.0671 19.355 18.0661 19.3525C18.0656 19.3513 18.0652 19.3504 18.065 19.3499C18.0649 19.3496 18.0648 19.3494 18.0648 19.3493C18.0648 19.3493 18.0647 19.3493 18.0647 19.3493L18.0647 19.3493C18.0648 19.3493 18.0648 19.3493 17.601 19.5361C17.1372 19.7229 17.1372 19.7229 17.1372 19.723C17.1372 19.723 17.1372 19.7231 17.1372 19.7231C17.1373 19.7232 17.1373 19.7233 17.1374 19.7234C17.1375 19.7237 17.1376 19.7241 17.1378 19.7245C17.1382 19.7254 17.1387 19.7266 17.1393 19.7282C17.1406 19.7314 17.1425 19.736 17.1449 19.7419C17.1497 19.7537 17.1567 19.7709 17.1659 19.7931C17.1843 19.8374 17.2111 19.9016 17.2457 19.9826C17.3149 20.1445 17.4151 20.3738 17.5402 20.6451C17.7896 21.1861 18.1408 21.9014 18.5438 22.5849L19.4052 22.0771ZM21.4967 24.7712C21.4893 24.7752 21.4904 24.7805 21.4565 24.7692C21.3976 24.7495 21.2771 24.6838 21.085 24.493C20.7006 24.111 20.168 23.3702 19.4052 22.077L18.5438 22.585C19.3099 23.8838 19.8972 24.7224 20.3802 25.2023C20.6219 25.4424 20.8719 25.6283 21.1399 25.7177C21.4329 25.8155 21.7173 25.7875 21.969 25.6526L21.4967 24.7712ZM22.2625 21.5481C21.7637 21.5828 21.7637 21.5827 21.7637 21.5827C21.7637 21.5827 21.7637 21.5827 21.7637 21.5827C21.7637 21.5827 21.7637 21.5828 21.7637 21.5829C21.7638 21.5831 21.7638 21.5836 21.7638 21.5842C21.7639 21.5854 21.764 21.5875 21.7642 21.5902C21.7646 21.5957 21.7651 21.6042 21.7658 21.6155C21.7672 21.6381 21.7692 21.6718 21.7715 21.7151C21.776 21.8019 21.7818 21.9271 21.7863 22.0788C21.7956 22.3832 21.8 22.7902 21.7818 23.2065C21.7634 23.6274 21.7225 24.0368 21.6479 24.3545C21.6105 24.5138 21.569 24.6308 21.5288 24.7085C21.4859 24.7913 21.4665 24.7873 21.4971 24.771L21.9686 25.6528C22.1883 25.5354 22.3273 25.3411 22.4168 25.1683C22.5089 24.9903 22.5737 24.7864 22.6215 24.5831C22.717 24.176 22.7614 23.6947 22.7808 23.2502C22.8005 22.8011 22.7955 22.3679 22.7859 22.0486C22.781 21.8884 22.775 21.7558 22.7701 21.6627C22.7677 21.6162 22.7655 21.5795 22.7639 21.5541C22.7632 21.5414 22.7625 21.5315 22.7621 21.5247C22.7619 21.5213 22.7617 21.5186 22.7615 21.5167C22.7615 21.5158 22.7614 21.515 22.7614 21.5145C22.7614 21.5142 22.7614 21.514 22.7613 21.5138C22.7613 21.5137 22.7613 21.5136 22.7613 21.5136C22.7613 21.5135 22.7613 21.5134 22.2625 21.5481ZM21.4815 20.138C21.5937 20.2879 21.6789 20.5976 21.7241 20.9539C21.7448 21.1171 21.7545 21.2666 21.7589 21.3755C21.7611 21.4297 21.762 21.4731 21.7624 21.5022C21.7626 21.5167 21.7626 21.5276 21.7626 21.5344C21.7626 21.5378 21.7626 21.5402 21.7626 21.5416C21.7626 21.5422 21.7626 21.5426 21.7626 21.5427C21.7626 21.5428 21.7626 21.5428 21.7626 21.5427C21.7626 21.5427 21.7626 21.5426 21.7626 21.5425C21.7626 21.5425 21.7626 21.5424 21.7626 21.5424C21.7626 21.5423 21.7626 21.5423 22.2625 21.5481C22.7625 21.5539 22.7625 21.5538 22.7625 21.5537C22.7625 21.5537 22.7625 21.5536 22.7625 21.5535C22.7625 21.5534 22.7625 21.5532 22.7625 21.553C22.7625 21.5527 22.7625 21.5522 22.7625 21.5517C22.7625 21.5507 22.7625 21.5494 22.7625 21.5478C22.7626 21.5446 22.7626 21.5403 22.7626 21.5349C22.7626 21.5242 22.7625 21.5092 22.7623 21.4904C22.7619 21.4527 22.7608 21.3996 22.7581 21.3347C22.7528 21.2054 22.7413 21.0265 22.7161 20.8281C22.6696 20.4614 22.5645 19.9163 22.2823 19.539L21.4815 20.138ZM20.6815 19.7738C20.7843 19.7872 20.9479 19.8179 21.1103 19.8824C21.2757 19.9481 21.4041 20.0345 21.4816 20.1381L22.2821 19.5388C22.0542 19.2344 21.7418 19.0572 21.4793 18.953C21.2139 18.8476 20.9624 18.802 20.811 18.7822L20.6815 19.7738ZM21.0997 18.1205C20.8058 18.2614 20.5515 18.483 20.3935 18.6879C20.3226 18.7797 20.2264 18.9244 20.1949 19.0945C20.1785 19.1828 20.1673 19.3464 20.2667 19.5091C20.3769 19.6895 20.5523 19.7569 20.6813 19.7738L20.8111 18.7823C20.8885 18.7924 21.0293 18.8392 21.1201 18.9879C21.2002 19.119 21.185 19.2398 21.1781 19.277C21.1655 19.3449 21.1425 19.354 21.1851 19.2988C21.254 19.2096 21.3878 19.0914 21.5322 19.0222L21.0997 18.1205ZM24.515 17.7506C23.8287 17.7438 23.1749 17.7446 22.6061 17.7889C22.0464 17.8325 21.5152 17.9212 21.0997 18.1205L21.5322 19.0222C21.7753 18.9056 22.1543 18.8271 22.6837 18.7859C23.2039 18.7454 23.8178 18.7437 24.5051 18.7505L24.515 17.7506ZM26.4226 17.9399C25.9631 17.8305 25.6174 17.762 24.5152 17.7506L24.5049 18.7505C25.5438 18.7612 25.8141 18.823 26.191 18.9127L26.4226 17.9399ZM27.6813 21.0037C27.7125 20.2437 27.7455 19.5711 27.6171 19.0704C27.5475 18.799 27.4241 18.5438 27.2069 18.337C26.9919 18.1324 26.7226 18.0109 26.422 17.9398L26.1916 18.9128C26.3763 18.9566 26.4671 19.0134 26.5174 19.0613C26.5654 19.107 26.6124 19.1786 26.6484 19.3188C26.7312 19.6415 26.7163 20.1324 26.6821 20.9626L27.6813 21.0037ZM27.6394 22.6481C27.6394 22.022 27.6617 21.4795 27.6813 21.0037L26.6821 20.9626C26.6626 21.438 26.6394 21.9992 26.6394 22.6481H27.6394ZM27.6306 23.1151C27.635 22.9595 27.6394 22.7996 27.6394 22.6481H26.6394C26.6394 22.7831 26.6354 22.9286 26.631 23.0872L27.6306 23.1151ZM27.897 24.7738C27.8085 24.7176 27.7123 24.5796 27.6603 24.2468C27.6097 23.9222 27.619 23.5339 27.6306 23.1151L26.631 23.0872C26.62 23.4831 26.6049 23.9685 26.6723 24.4009C26.7384 24.8249 26.9027 25.327 27.361 25.618L27.897 24.7738ZM29.8798 22.1081C29.0288 23.5261 28.4609 24.2237 28.0995 24.544C27.9192 24.7037 27.823 24.7399 27.7991 24.7461C27.797 24.7466 27.8445 24.7407 27.8958 24.7731L27.3622 25.6188C27.5538 25.7397 27.7921 25.7812 28.0508 25.7139C28.2878 25.6523 28.5225 25.5053 28.7628 25.2924C29.2425 24.8672 29.874 24.0611 30.7372 22.6227L29.8798 22.1081ZM31.7296 19.4194C31.2626 19.2408 31.2626 19.2408 31.2626 19.2408L31.2626 19.2407C31.2626 19.2407 31.2626 19.2408 31.2626 19.2408C31.2626 19.2409 31.2625 19.2411 31.2624 19.2414C31.2622 19.2419 31.2618 19.2429 31.2613 19.2442C31.2603 19.2469 31.2587 19.251 31.2565 19.2566C31.2522 19.2677 31.2456 19.2846 31.2368 19.3068C31.2193 19.3512 31.1931 19.4167 31.1591 19.4998C31.091 19.6661 30.9917 19.9024 30.8674 20.1803C30.6178 20.7384 30.2717 21.4549 29.8797 22.1082L30.7373 22.6226C31.1579 21.9215 31.5224 21.165 31.7802 20.5886C31.9096 20.2994 32.0132 20.0531 32.0846 19.8786C32.1203 19.7914 32.148 19.722 32.167 19.674C32.1764 19.65 32.1837 19.6314 32.1887 19.6186C32.1912 19.6122 32.1931 19.6072 32.1944 19.6037C32.1951 19.602 32.1956 19.6006 32.196 19.5997C32.1962 19.5992 32.1963 19.5988 32.1964 19.5985C32.1965 19.5984 32.1965 19.5982 32.1966 19.5981C32.1966 19.5981 32.1966 19.598 32.1966 19.598C32.1966 19.598 32.1967 19.5979 31.7296 19.4194ZM31.8165 18.5829C31.6198 18.6988 31.4848 18.8708 31.4106 18.9787C31.3698 19.0379 31.3382 19.0915 31.3164 19.1309C31.3053 19.1508 31.2965 19.1676 31.2901 19.1804C31.2868 19.1867 31.2841 19.1921 31.282 19.1964C31.281 19.1986 31.2801 19.2005 31.2793 19.2021C31.2789 19.2029 31.2786 19.2036 31.2783 19.2042C31.2781 19.2046 31.278 19.2049 31.2778 19.2052C31.2778 19.2053 31.2777 19.2055 31.2776 19.2056C31.2776 19.2057 31.2776 19.2058 31.2775 19.2058C31.2775 19.2059 31.2774 19.206 31.7296 19.4194C32.1818 19.6327 32.1818 19.6328 32.1817 19.6329C32.1817 19.633 32.1817 19.6331 32.1816 19.6331C32.1816 19.6332 32.1815 19.6333 32.1815 19.6335C32.1814 19.6337 32.1813 19.6339 32.1812 19.6341C32.181 19.6345 32.1809 19.6348 32.1807 19.635C32.1805 19.6355 32.1803 19.6358 32.1803 19.6359C32.1803 19.6359 32.1807 19.6351 32.1815 19.6335C32.1832 19.6302 32.1865 19.6239 32.1912 19.6153C32.201 19.5977 32.2157 19.5727 32.2343 19.5457C32.2532 19.5182 32.273 19.4932 32.292 19.4732C32.3013 19.4634 32.3091 19.4563 32.3152 19.4512C32.3213 19.4462 32.3243 19.4444 32.3239 19.4446L31.8165 18.5829ZM32.5673 18.9277C32.6334 18.4321 32.6333 18.4321 32.6332 18.4321C32.6331 18.4321 32.633 18.4321 32.6329 18.4321C32.6327 18.432 32.6325 18.432 32.6324 18.432C32.632 18.4319 32.6316 18.4319 32.6312 18.4318C32.6303 18.4317 32.6294 18.4316 32.6285 18.4315C32.6265 18.4313 32.6242 18.431 32.6217 18.4307C32.6166 18.4301 32.6103 18.4294 32.603 18.4287C32.5884 18.4273 32.5693 18.4257 32.5465 18.4245C32.5014 18.422 32.4394 18.4207 32.3675 18.4251C32.2332 18.4334 32.0195 18.4638 31.8172 18.5825L32.3232 19.445C32.3325 19.4396 32.3674 19.427 32.4287 19.4233C32.4546 19.4217 32.4772 19.4222 32.4923 19.423C32.4995 19.4234 32.5044 19.4238 32.5062 19.424C32.5071 19.4241 32.5072 19.4241 32.5064 19.424C32.506 19.424 32.5053 19.4239 32.5045 19.4238C32.504 19.4237 32.5035 19.4237 32.503 19.4236C32.5027 19.4236 32.5024 19.4235 32.5021 19.4235C32.502 19.4235 32.5018 19.4234 32.5016 19.4234C32.5016 19.4234 32.5014 19.4234 32.5014 19.4234C32.5013 19.4234 32.5011 19.4234 32.5673 18.9277ZM36.4132 18.4044L32.5642 18.4278L32.5703 19.4277L36.4193 19.4044L36.4132 18.4044ZM38.2297 19.111C38.1193 18.8072 37.8773 18.6388 37.673 18.5486C37.4692 18.4586 37.2475 18.4202 37.066 18.4027C36.8793 18.3847 36.7043 18.3862 36.5786 18.3916C36.5149 18.3943 36.4618 18.3981 36.4238 18.4013C36.4048 18.403 36.3894 18.4044 36.3783 18.4056C36.3727 18.4062 36.3681 18.4067 36.3647 18.407C36.3629 18.4072 36.3615 18.4074 36.3603 18.4075C36.3597 18.4076 36.3592 18.4077 36.3588 18.4077C36.3586 18.4077 36.3584 18.4078 36.3582 18.4078C36.3581 18.4078 36.358 18.4078 36.3579 18.4078C36.3578 18.4078 36.3577 18.4078 36.4162 18.9044C36.4748 19.401 36.4747 19.401 36.4746 19.401C36.4745 19.401 36.4744 19.401 36.4744 19.401C36.4743 19.401 36.4742 19.401 36.4741 19.401C36.4739 19.4011 36.4738 19.4011 36.4738 19.4011C36.4738 19.4011 36.474 19.401 36.4744 19.401C36.4754 19.4009 36.4774 19.4007 36.4803 19.4004C36.4861 19.3998 36.4958 19.3988 36.5088 19.3977C36.5348 19.3955 36.5736 19.3927 36.6213 19.3906C36.7183 19.3865 36.8442 19.386 36.9701 19.3981C37.1011 19.4107 37.2036 19.4345 37.2692 19.4634C37.3343 19.4922 37.3068 19.4994 37.2898 19.4524L38.2297 19.111ZM36.1524 23.436C36.9456 22.3981 37.5163 21.5428 37.8653 20.866C38.0395 20.5281 38.1672 20.2182 38.2359 19.9409C38.3027 19.6715 38.3275 19.3783 38.2293 19.1099L37.2902 19.4536C37.2892 19.4509 37.2953 19.466 37.2946 19.5089C37.2939 19.552 37.2865 19.6147 37.2653 19.7004C37.2223 19.874 37.1314 20.1073 36.9765 20.4078C36.6671 21.0077 36.1372 21.8091 35.3579 22.8287L36.1524 23.436ZM34.1013 26.3868C34.0898 26.2774 34.1364 26.0815 34.5019 25.5701C34.8578 25.0722 35.3861 24.4387 36.1524 23.4359L35.3578 22.8288C34.6323 23.7782 34.0518 24.4801 33.6884 24.9886C33.3346 25.4836 33.0516 25.9648 33.1067 26.4911L34.1013 26.3868ZM35.3668 27.7784C34.9043 27.3573 34.5845 27.0675 34.369 26.8258C34.1536 26.5841 34.1091 26.4609 34.1013 26.3868L33.1067 26.4911C33.1477 26.8815 33.3634 27.2006 33.6225 27.4912C33.8816 27.7818 34.2505 28.1144 34.6935 28.5178L35.3668 27.7784ZM37.9854 30.7511C37.835 30.482 37.2932 29.534 35.3669 27.7786L34.6934 28.5177C36.5479 30.2078 37.0195 31.0727 37.1126 31.2391L37.9854 30.7511ZM37.9968 30.7716C37.9983 30.774 37.9991 30.7753 37.9988 30.7749C37.9986 30.7746 37.998 30.7735 37.9968 30.7714C37.9941 30.7667 37.9908 30.7607 37.9854 30.7511L37.1126 31.2391C37.1198 31.252 37.1341 31.2779 37.147 31.2987L37.9968 30.7716ZM36.6316 32.5235C36.6618 33.0226 36.662 33.0226 36.6622 33.0226C36.6623 33.0226 36.6625 33.0226 36.6626 33.0226C36.663 33.0226 36.6633 33.0225 36.6637 33.0225C36.6644 33.0225 36.6653 33.0224 36.6662 33.0223C36.6682 33.0222 36.6705 33.0221 36.6733 33.0218C36.6789 33.0214 36.6862 33.0209 36.6951 33.0201C36.7128 33.0185 36.7369 33.0162 36.7662 33.0127C36.8245 33.0057 36.905 32.994 36.9983 32.9749C37.1783 32.9379 37.435 32.8673 37.6722 32.7285C37.9111 32.5887 38.178 32.3496 38.2691 31.9653C38.3594 31.5844 38.2481 31.1808 37.998 30.7735L37.1458 31.2968C37.3195 31.5796 37.3026 31.7071 37.2961 31.7347C37.2903 31.7589 37.2692 31.8057 37.1671 31.8654C37.0632 31.9262 36.9259 31.9689 36.7971 31.9953C36.736 32.0079 36.6835 32.0154 36.6473 32.0197C36.6294 32.0219 36.6159 32.0232 36.6078 32.0239C36.6038 32.0243 36.6012 32.0245 36.6 32.0245C36.5995 32.0246 36.5993 32.0246 36.5995 32.0246C36.5996 32.0246 36.5998 32.0246 36.6002 32.0245C36.6003 32.0245 36.6005 32.0245 36.6007 32.0245C36.6008 32.0245 36.601 32.0245 36.601 32.0245C36.6012 32.0245 36.6014 32.0245 36.6316 32.5235ZM33.2189 33.0702L36.6384 33.0235L36.6248 32.0236L33.2053 32.0703L33.2189 33.0702ZM31.2323 32.4761C31.7806 32.8456 32.2765 32.9983 32.65 33.0545C32.8357 33.0825 32.989 33.0863 33.1013 33.082C33.1575 33.0799 33.2034 33.0757 33.2381 33.0716C33.2554 33.0695 33.27 33.0674 33.2816 33.0656C33.2874 33.0647 33.2924 33.0638 33.2968 33.063C33.2989 33.0627 33.3009 33.0623 33.3027 33.062C33.3036 33.0618 33.3044 33.0617 33.3052 33.0615C33.3056 33.0614 33.306 33.0614 33.3064 33.0613C33.3066 33.0612 33.3069 33.0612 33.3069 33.0612C33.3072 33.0611 33.3075 33.0611 33.2121 32.5702C33.1167 32.0794 33.117 32.0794 33.1173 32.0793C33.1173 32.0793 33.1176 32.0793 33.1178 32.0792C33.1181 32.0792 33.1184 32.0791 33.1187 32.079C33.1194 32.0789 33.1199 32.0788 33.1205 32.0787C33.1215 32.0785 33.1224 32.0784 33.1232 32.0782C33.1247 32.078 33.1255 32.0778 33.1257 32.0778C33.1261 32.0777 33.1239 32.0781 33.1193 32.0786C33.1101 32.0797 33.0911 32.0817 33.0634 32.0827C33.0079 32.0848 32.9174 32.0835 32.7988 32.0657C32.5638 32.0303 32.2095 31.9287 31.7912 31.6468L31.2323 32.4761ZM29.6656 30.9654C30.1239 31.4812 30.6628 32.0926 31.2325 32.4762L31.791 31.6467C31.3481 31.3484 30.8973 30.8461 30.4131 30.3012L29.6656 30.9654ZM28.236 29.7292C28.2566 29.7228 28.3779 29.7058 28.6906 29.9603C28.9797 30.1955 29.2968 30.5503 29.6656 30.9654L30.4131 30.3012C30.0622 29.9062 29.687 29.4819 29.3218 29.1847C28.9803 28.9067 28.4854 28.6041 27.9386 28.7744L28.236 29.7292ZM27.1632 31.5637C27.6632 31.5565 27.6632 31.5566 27.6632 31.5567C27.6632 31.5567 27.6632 31.5568 27.6632 31.5569C27.6632 31.557 27.6632 31.557 27.6632 31.5571C27.6632 31.5571 27.6632 31.5571 27.6632 31.5569C27.6632 31.5566 27.6632 31.5558 27.6632 31.5545C27.6632 31.552 27.6631 31.5477 27.6631 31.5417C27.6632 31.5296 27.6633 31.5108 27.6638 31.4862C27.6647 31.4367 27.6671 31.3642 27.6726 31.2757C27.6839 31.0971 27.7079 30.8608 27.7576 30.6206C27.8082 30.3761 27.8803 30.153 27.9755 29.9858C28.0703 29.8192 28.1614 29.7525 28.2363 29.7291L27.9383 28.7745C27.5367 28.8999 27.2741 29.1965 27.1064 29.4912C26.9389 29.7854 26.8396 30.1216 26.7783 30.4179C26.7161 30.7185 26.6877 31.0044 26.6746 31.2128C26.668 31.3178 26.6651 31.405 26.6639 31.4669C26.6634 31.4979 26.6632 31.5226 26.6631 31.5402C26.6631 31.549 26.6632 31.5561 26.6632 31.5612C26.6632 31.5638 26.6632 31.5659 26.6632 31.5675C26.6633 31.5683 26.6633 31.5689 26.6633 31.5695C26.6633 31.5698 26.6633 31.57 26.6633 31.5702C26.6633 31.5704 26.6633 31.5705 26.6633 31.5705C26.6633 31.5707 26.6633 31.5708 27.1632 31.5637ZM27.3171 32.5676C27.5254 32.3477 27.6005 32.0669 27.6316 31.8987C27.6487 31.8061 27.6565 31.7242 27.6601 31.665C27.6619 31.6351 27.6627 31.6102 27.6631 31.5915C27.6632 31.5822 27.6633 31.5744 27.6633 31.5682C27.6633 31.5652 27.6632 31.5625 27.6632 31.5603C27.6632 31.5592 27.6632 31.5582 27.6632 31.5573C27.6632 31.5568 27.6632 31.5564 27.6632 31.556C27.6632 31.5558 27.6632 31.5557 27.6632 31.5555C27.6632 31.5554 27.6632 31.5553 27.6632 31.5552C27.6632 31.5551 27.6632 31.5549 27.1632 31.5637C26.6633 31.5724 26.6633 31.5722 26.6633 31.5721C26.6633 31.5721 26.6633 31.572 26.6633 31.5719C26.6633 31.5717 26.6633 31.5716 26.6633 31.5714C26.6633 31.5711 26.6633 31.5709 26.6633 31.5707C26.6633 31.5702 26.6633 31.5698 26.6633 31.5695C26.6633 31.5689 26.6633 31.5687 26.6633 31.5689C26.6633 31.5692 26.6633 31.5708 26.6632 31.5737C26.6631 31.5796 26.6628 31.5901 26.6619 31.6042C26.6602 31.6331 26.6563 31.6734 26.6482 31.7171C26.64 31.7617 26.6288 31.8021 26.6155 31.8344C26.6091 31.8501 26.6032 31.8615 26.5984 31.8694C26.5936 31.8773 26.5909 31.8801 26.5912 31.8798L27.3171 32.5676Z" fill="#82B5D1"/>
</svg>
