<svg width="39" height="27" viewBox="0 0 39 27" fill="none" xmlns="http://www.w3.org/2000/svg">
<path d="M8.54199 26V13.582C8.54199 11.9551 8.32617 10.804 7.89453 10.1289C7.47396 9.44271 6.78223 9.09961 5.81934 9.09961C4.54655 9.09961 3.58919 9.66406 2.94727 10.793C2.30534 11.9219 1.98438 13.7038 1.98438 16.1387V26H0.407227V0.167969H1.98438V8.55176C1.98438 9.31543 1.96224 9.95182 1.91797 10.4609H2.05078C2.40495 9.56445 2.9362 8.87272 3.64453 8.38574C4.36393 7.8877 5.111 7.63867 5.88574 7.63867C7.41309 7.63867 8.49772 8.13672 9.13965 9.13281C9.78158 10.1289 10.1025 11.612 10.1025 13.582V26H8.54199ZM16.4277 26H14.8506V7.9873H16.4277V26ZM14.6182 2.99023C14.6182 2.49219 14.7178 2.10482 14.917 1.82812C15.1273 1.55143 15.3929 1.41309 15.7139 1.41309C16.0127 1.41309 16.2507 1.55143 16.4277 1.82812C16.6048 2.10482 16.6934 2.49219 16.6934 2.99023C16.6934 3.46615 16.6048 3.84798 16.4277 4.13574C16.2507 4.41243 16.0127 4.55078 15.7139 4.55078C15.3929 4.55078 15.1273 4.41243 14.917 4.13574C14.7178 3.84798 14.6182 3.46615 14.6182 2.99023ZM24.5625 24.8711C25.0495 24.8711 25.4811 24.8047 25.8574 24.6719V26C25.3704 26.2214 24.7451 26.332 23.9814 26.332C22.1221 26.332 21.1924 24.943 21.1924 22.165V9.38184H19.5654V8.45215L21.1592 7.9873L21.6738 3.7041H22.7695V7.9873H25.625V9.38184H22.7695V21.7168C22.7695 22.9342 22.9023 23.7643 23.168 24.207C23.4336 24.6497 23.8984 24.8711 24.5625 24.8711ZM33.8428 26.332C31.9391 26.332 30.4727 25.5241 29.4434 23.9082C28.4251 22.2812 27.916 20.0179 27.916 17.1182C27.916 14.0413 28.3698 11.695 29.2773 10.0791C30.196 8.45215 31.513 7.63867 33.2285 7.63867C34.7227 7.63867 35.9014 8.35254 36.7646 9.78027C37.6279 11.1969 38.0596 13.1117 38.0596 15.5244V16.9854H29.5264C29.5485 19.6084 29.9193 21.5729 30.6387 22.8789C31.3581 24.1849 32.4482 24.8379 33.9092 24.8379C35.0381 24.8379 36.2279 24.4671 37.4785 23.7256V25.2529C36.3275 25.9723 35.1156 26.332 33.8428 26.332ZM33.1289 9.06641C30.9596 9.06641 29.7699 11.2301 29.5596 15.5576H36.4824C36.4824 13.5765 36.1781 11.9993 35.5693 10.8262C34.9717 9.65299 34.1582 9.06641 33.1289 9.06641Z" fill="#82B5D1"/>
</svg>
