<svg width="50" height="50" viewBox="0 0 50 50" fill="none" xmlns="http://www.w3.org/2000/svg">
<path d="M19.7233 11.9248L19.7005 11.4253L19.7004 11.4253L19.7233 11.9248ZM30.2746 11.9248L30.2975 11.4253L30.2973 11.4253L30.2746 11.9248ZM33.384 12.5195L33.2031 12.9856L33.2032 12.9857L33.384 12.5195ZM35.6506 13.9955L35.2971 14.349L35.2972 14.3492L35.6506 13.9955ZM37.128 16.263L37.5943 16.0827L37.5939 16.0815L37.128 16.263ZM37.7227 19.3697L38.2222 19.3472L38.2221 19.3462L37.7227 19.3697ZM37.7227 29.9244L38.2221 29.9479L38.2222 29.9469L37.7227 29.9244ZM37.128 33.0311L37.5939 33.2127L37.5944 33.2114L37.128 33.0311ZM35.6506 35.2984L35.2972 34.9447L35.2969 34.945L35.6506 35.2984ZM33.3848 36.7757L33.2037 36.3097L33.2036 36.3097L33.3848 36.7757ZM30.2765 37.3704L30.2992 37.8699L30.2993 37.8699L30.2765 37.3704ZM19.7222 37.3704L19.6993 37.8699L19.6995 37.8699L19.7222 37.3704ZM16.615 36.7757L16.7961 36.3097L16.7961 36.3097L16.615 36.7757ZM14.3483 35.2984L14.702 34.945L14.7018 34.9448L14.3483 35.2984ZM12.872 33.0309L12.406 33.212L12.406 33.212L12.872 33.0309ZM12.2773 29.9242L11.7778 29.9468L11.7779 29.9472L12.2773 29.9242ZM12.2771 19.3694L11.7776 19.3469L11.7776 19.3471L12.2771 19.3694ZM12.8717 16.2627L13.3376 16.4443L13.3376 16.4443L12.8717 16.2627ZM14.3491 13.9955L14.7025 14.3492L14.7027 14.349L14.3491 13.9955ZM16.6166 12.5195L16.7976 12.9856L16.7978 12.9855L16.6166 12.5195ZM1.5 24.6475C1.5 11.6688 12.0213 1.14746 25 1.14746V0.147461C11.469 0.147461 0.5 11.1165 0.5 24.6475H1.5ZM25 48.1475C12.0213 48.1475 1.5 37.6262 1.5 24.6475H0.5C0.5 38.1784 11.469 49.1475 25 49.1475V48.1475ZM48.5 24.6475C48.5 37.6262 37.9787 48.1475 25 48.1475V49.1475C38.531 49.1475 49.5 38.1784 49.5 24.6475H48.5ZM25 1.14746C37.9787 1.14746 48.5 11.6688 48.5 24.6475H49.5C49.5 11.1165 38.531 0.147461 25 0.147461V1.14746ZM25.0012 11.3475C21.5223 11.3475 21.0772 11.3627 19.7005 11.4253L19.746 12.4243C21.1 12.3627 21.5275 12.3475 25.0012 12.3475V11.3475ZM24.9972 12.3475H25.0012V11.3475H24.9972V12.3475ZM30.2973 11.4253C28.9207 11.3627 28.4772 11.3475 24.9972 11.3475V12.3475C28.472 12.3475 28.8978 12.3627 30.2519 12.4243L30.2973 11.4253ZM33.5648 12.0533C32.6922 11.7148 31.7073 11.4899 30.2975 11.4253L30.2517 12.4243C31.5672 12.4845 32.4437 12.691 33.2031 12.9856L33.5648 12.0533ZM36.0042 13.6419C35.2399 12.8776 34.4679 12.4034 33.5647 12.0533L33.2032 12.9857C33.9854 13.2889 34.6374 13.6893 35.2971 14.349L36.0042 13.6419ZM37.5939 16.0815C37.2427 15.1801 36.7688 14.4059 36.0041 13.6418L35.2972 14.3492C35.9565 15.008 36.3573 15.6621 36.6621 16.4445L37.5939 16.0815ZM38.2221 19.3462C38.1559 17.9366 37.9307 16.9527 37.5943 16.0827L36.6616 16.4433C36.9546 17.201 37.1614 18.0774 37.2232 19.3931L38.2221 19.3462ZM38.3 24.6476C38.3 21.1684 38.284 20.7236 38.2222 19.3472L37.2232 19.3921C37.284 20.7465 37.3 21.1741 37.3 24.6476H38.3ZM38.2222 29.9469C38.284 28.5705 38.3 28.1268 38.3 24.6476H37.3C37.3 28.121 37.284 28.5477 37.2232 29.902L38.2222 29.9469ZM37.5944 33.2114C37.9307 32.3412 38.1559 31.357 38.2221 29.9479L37.2232 29.901C37.1614 31.2162 36.9546 32.0928 36.6616 32.8509L37.5944 33.2114ZM36.0041 35.6521C36.7688 34.8879 37.2427 34.1138 37.5939 33.2127L36.6621 32.8496C36.3573 33.6317 35.9565 34.2859 35.2972 34.9447L36.0041 35.6521ZM33.5658 37.2418C34.4678 36.8914 35.2409 36.4161 36.0044 35.6517L35.2969 34.945C34.638 35.6047 33.9849 36.0062 33.2037 36.3097L33.5658 37.2418ZM30.2993 37.8699C31.7091 37.8053 32.6946 37.5804 33.5659 37.2418L33.2036 36.3097C32.446 36.6041 31.5692 36.8107 30.2536 36.8709L30.2993 37.8699ZM24.9996 37.9477C28.4788 37.9477 28.9225 37.9325 30.2992 37.8699L30.2537 36.8709C28.8997 36.9325 28.4736 36.9477 24.9996 36.9477V37.9477ZM19.6995 37.8699C21.0761 37.9325 21.521 37.9477 24.9996 37.9477V36.9477C21.5262 36.9477 21.099 36.9325 19.7449 36.8709L19.6995 37.8699ZM16.4338 37.2418C17.305 37.5804 18.2898 37.8053 19.6993 37.8699L19.7451 36.8709C18.4298 36.8107 17.5537 36.6041 16.7961 36.3097L16.4338 37.2418ZM13.9945 35.6517C14.7582 36.4162 15.5323 36.8914 16.4339 37.2418L16.7961 36.3097C16.0149 36.0061 15.3608 35.6045 14.702 34.945L13.9945 35.6517ZM12.406 33.212C12.7564 34.1137 13.2304 34.8879 13.9948 35.652L14.7018 34.9448C14.0427 34.2859 13.642 33.6318 13.338 32.8498L12.406 33.212ZM11.7779 29.9472C11.8427 31.3569 12.0676 32.3414 12.406 33.212L13.3381 32.8498C13.0438 32.0927 12.8373 31.2168 12.7768 29.9012L11.7779 29.9472ZM11.7 24.6476C11.7 28.1266 11.7155 28.5703 11.7778 29.9468L12.7768 29.9015C12.7155 28.5474 12.7 28.1212 12.7 24.6476H11.7ZM11.7776 19.3471C11.716 20.7233 11.7 21.1684 11.7 24.6476H12.7C12.7 21.1741 12.716 20.7462 12.7766 19.3917L11.7776 19.3471ZM12.4059 16.0811C12.0663 16.9523 11.841 17.9373 11.7776 19.3469L12.7766 19.3919C12.8358 18.0772 13.0425 17.2014 13.3376 16.4443L12.4059 16.0811ZM13.9957 13.6418C13.231 14.4059 12.7571 15.18 12.4059 16.0811L13.3376 16.4443C13.6424 15.6622 14.0432 15.008 14.7025 14.3492L13.9957 13.6418ZM16.4356 12.0534C15.5338 12.4036 14.7596 12.8776 13.9955 13.642L14.7027 14.349C15.3616 13.6899 16.0156 13.2892 16.7976 12.9856L16.4356 12.0534ZM19.7004 11.4253C18.2906 11.4899 17.3061 11.7148 16.4353 12.0535L16.7978 12.9855C17.5548 12.691 18.4306 12.4845 19.7462 12.4243L19.7004 11.4253Z" fill="#82B5D1"/>
<path d="M24.5746 14.154L24.5744 14.654H24.5745L24.5746 14.154ZM23.853 14.1541H23.353V14.6549L23.8538 14.6541L23.853 14.1541ZM25.0013 14.1541L25.0011 14.6541H25.0013V14.1541ZM30.1736 14.2277L30.1964 13.7282L30.1963 13.7282L30.1736 14.2277ZM32.5501 14.6685L32.7312 14.2024L32.7311 14.2024L32.5501 14.6685ZM34.0211 15.6258L33.6674 15.9793L33.6675 15.9794L34.0211 15.6258ZM34.979 17.0978L35.445 16.9167L35.4449 16.9165L34.979 17.0978ZM35.4198 19.4739L35.9193 19.4512L35.9192 19.4511L35.4198 19.4739ZM35.4198 29.8153L35.9192 29.8381L35.9193 29.838L35.4198 29.8153ZM34.979 32.1913L34.5129 32.0102L34.5129 32.0103L34.979 32.1913ZM34.0211 33.6617L33.6676 33.3081L33.6675 33.3082L34.0211 33.6617ZM32.5501 34.6191L32.3692 34.153L32.3682 34.1534L32.5501 34.6191ZM30.1736 35.0602L30.1963 35.5596L30.1964 35.5596L30.1736 35.0602ZM19.8289 35.0602L19.8059 35.5596L19.8062 35.5596L19.8289 35.0602ZM17.4521 34.6188L17.2711 35.0849L17.2712 35.085L17.4521 34.6188ZM15.9801 33.6615L15.6265 34.015H15.6265L15.9801 33.6615ZM15.0222 32.1903L14.5562 32.3714L14.5563 32.3716L15.0222 32.1903ZM14.5814 29.8142L14.0819 29.8369L14.0819 29.837L14.5814 29.8142ZM14.5814 19.4707L14.0819 19.4478L14.0819 19.448L14.5814 19.4707ZM15.0222 17.0941L14.5561 16.9131L14.5561 16.9131L15.0222 17.0941ZM15.9801 15.6221L15.6265 15.2685H15.6265L15.9801 15.6221ZM17.4521 14.6642L17.6335 15.1302L17.6338 15.13L17.4521 14.6642ZM19.8289 14.2229L19.8064 13.7234L19.806 13.7234L19.8289 14.2229ZM23.853 14.1509H24.353V13.6503L23.8524 13.6509L23.853 14.1509ZM31.8339 16.2794V16.7794H32.3339V16.2794H31.8339ZM31.8339 16.2789V15.7789H31.3339V16.2789H31.8339ZM25.001 18.0741V17.5741H25.001L25.001 18.0741ZM24.5749 13.654C24.3161 13.6538 24.0758 13.6537 23.8522 13.6541L23.8538 14.6541C24.0761 14.6537 24.3155 14.6538 24.5744 14.654L24.5749 13.654ZM25.0014 13.6541L24.5748 13.654L24.5745 14.654L25.0011 14.6541L25.0014 13.6541ZM30.1963 13.7282C28.835 13.6663 28.4208 13.6541 25.0013 13.6541V14.6541C28.417 14.6541 28.8129 14.6664 30.1509 14.7272L30.1963 13.7282ZM32.7311 14.2024C32.2303 14.0079 31.4996 13.7878 30.1964 13.7282L30.1507 14.7272C31.3436 14.7817 31.9676 14.9786 32.3692 15.1346L32.7311 14.2024ZM34.3747 15.2724C33.8774 14.7747 33.3926 14.4593 32.7312 14.2024L32.3691 15.1346C32.9024 15.3417 33.2693 15.5809 33.6674 15.9793L34.3747 15.2724ZM35.4449 16.9165C35.1876 16.2555 34.8724 15.77 34.3746 15.2723L33.6675 15.9794C34.0658 16.3777 34.3052 16.7455 34.513 17.2792L35.4449 16.9165ZM35.9192 19.4511C35.8599 18.1478 35.6395 17.417 35.445 16.9167L34.5129 17.279C34.6688 17.68 34.866 18.3039 34.9203 19.4966L35.9192 19.4511ZM35.9944 24.6446C35.9944 21.2263 35.9811 20.812 35.9193 19.4512L34.9203 19.4966C34.9811 20.8344 34.9944 21.2308 34.9944 24.6446H35.9944ZM35.9193 29.838C35.9811 28.4772 35.9944 28.0629 35.9944 24.6446H34.9944C34.9944 28.0584 34.9811 28.4547 34.9203 29.7926L35.9193 29.838ZM35.445 32.3725C35.6395 31.872 35.8597 31.1413 35.9192 29.8381L34.9203 29.7925C34.8657 30.9854 34.6688 31.6093 34.5129 32.0102L35.445 32.3725ZM34.3745 34.0154C34.8719 33.5184 35.188 33.0342 35.445 32.3724L34.5129 32.0103C34.3059 32.5432 34.0663 32.9096 33.6676 33.3081L34.3745 34.0154ZM32.7311 35.0852C33.393 34.8282 33.8772 34.5127 34.3746 34.0153L33.6675 33.3082C33.269 33.7068 32.9025 33.9459 32.3692 34.153L32.7311 35.0852ZM30.1964 35.5596C31.4992 35.5001 32.2308 35.2806 32.732 35.0848L32.3682 34.1534C31.9682 34.3096 31.344 34.5061 30.1507 34.5607L30.1964 35.5596ZM25.0013 35.6348C28.4211 35.6348 28.8355 35.6215 30.1963 35.5596L30.1509 34.5607C28.813 34.6215 28.4167 34.6348 25.0013 34.6348V35.6348ZM19.8062 35.5596C21.1671 35.6215 21.5811 35.6348 25.0013 35.6348V34.6348C21.5856 34.6348 21.1895 34.6215 19.8516 34.5607L19.8062 35.5596ZM17.2712 35.085C17.7722 35.2794 18.5028 35.4995 19.8059 35.5596L19.852 34.5607C18.6591 34.5056 18.035 34.3087 17.633 34.1527L17.2712 35.085ZM15.6265 34.015C16.1243 34.5128 16.6099 34.8281 17.2711 35.0849L17.6331 34.1527C17.0996 33.9455 16.7319 33.7062 16.3336 33.3079L15.6265 34.015ZM14.5563 32.3716C14.8137 33.0331 15.129 33.5175 15.6265 34.015L16.3336 33.3079C15.9351 32.9094 15.6958 32.5426 15.4882 32.009L14.5563 32.3716ZM14.0819 29.837C14.1412 31.1403 14.3617 31.8711 14.5562 32.3714L15.4882 32.0091C15.3324 31.6081 15.1352 30.9842 15.0809 29.7915L14.0819 29.837ZM14.0078 24.6414C14.0078 28.0615 14.0201 28.4759 14.0819 29.8369L15.0809 29.7915C15.0201 28.4538 15.0078 28.0577 15.0078 24.6414H14.0078ZM14.0819 19.448C14.0201 20.809 14.0078 21.2213 14.0078 24.6414H15.0078C15.0078 21.2251 15.0201 20.8311 15.0809 19.4934L14.0819 19.448ZM14.5561 16.9131C14.3617 17.414 14.1415 18.1447 14.0819 19.4478L15.0809 19.4935C15.1354 18.3007 15.3324 17.6767 15.4883 17.2751L14.5561 16.9131ZM15.6265 15.2685C15.129 15.7661 14.813 16.2517 14.5561 16.9131L15.4883 17.2751C15.6954 16.7419 15.9352 16.3741 16.3336 15.9756L15.6265 15.2685ZM17.2707 14.1983C16.6098 14.4556 16.1243 14.7708 15.6265 15.2685L16.3336 15.9756C16.7319 15.5774 17.0997 15.3379 17.6335 15.1302L17.2707 14.1983ZM19.806 13.7234C18.5032 13.7833 17.772 14.0027 17.2704 14.1984L17.6338 15.13C18.0346 14.9737 18.6586 14.7772 19.8519 14.7224L19.806 13.7234ZM23.8524 13.6509C21.462 13.6536 20.9967 13.6696 19.8064 13.7234L19.8515 14.7224C21.0228 14.6695 21.4727 14.6535 23.8535 14.6509L23.8524 13.6509ZM24.353 14.1541V14.1509H23.353V14.1541H24.353ZM30.7978 17.8149C30.7978 17.2431 31.2617 16.7794 31.8339 16.7794V15.7794C30.71 15.7794 29.7978 16.6902 29.7978 17.8149H30.7978ZM31.8339 18.8509C31.262 18.8509 30.7978 18.3868 30.7978 17.8149H29.7978C29.7978 18.9391 30.7097 19.8509 31.8339 19.8509V18.8509ZM32.8699 17.8149C32.8699 18.3868 32.4057 18.8509 31.8339 18.8509V19.8509C32.958 19.8509 33.8699 18.9391 33.8699 17.8149H32.8699ZM31.8339 16.7789C32.4057 16.7789 32.8699 17.243 32.8699 17.8149H33.8699C33.8699 16.6908 32.958 15.7789 31.8339 15.7789V16.7789ZM32.3339 16.2794V16.2789H31.3339V16.2794H32.3339ZM25.001 17.5741C21.0948 17.5743 17.9279 20.7413 17.9279 24.6475H18.9279C18.9279 21.2936 21.6471 18.5742 25.001 18.5741L25.001 17.5741ZM32.0736 24.6475C32.0736 20.7413 28.9074 17.5741 25.001 17.5741V18.5741C28.3549 18.5741 31.0736 21.2934 31.0736 24.6475H32.0736ZM25.0013 31.7196C28.9075 31.7196 32.0736 28.5539 32.0736 24.6475H31.0736C31.0736 28.0015 28.3553 30.7196 25.0013 30.7196V31.7196ZM17.9279 24.6475C17.9279 28.554 21.0951 31.7196 25.0013 31.7196V30.7196C21.6471 30.7196 18.9279 28.0014 18.9279 24.6475H17.9279Z" fill="#82B5D1"/>
<path d="M25.0011 20.3809C27.3574 20.3809 29.2678 22.291 29.2678 24.6476C29.2678 27.0039 27.3574 28.9143 25.0011 28.9143C22.6445 28.9143 20.7344 27.0039 20.7344 24.6476C20.7344 22.291 22.6445 20.3809 25.0011 20.3809V20.3809Z" stroke="#82B5D1"/>
</svg>
