<svg width="50" height="50" viewBox="0 0 50 50" fill="none" xmlns="http://www.w3.org/2000/svg">
<path d="M24.2812 20.155L24.7803 20.1247L24.78 20.12L24.2812 20.155ZM24.3316 20.9854L24.2714 21.4818L24.867 21.5539L24.8306 20.9552L24.3316 20.9854ZM27.5548 15.2739L27.3891 14.8021L27.384 14.804L27.5548 15.2739ZM30.4926 15.2061L30.6376 14.7275L30.6261 14.7243L30.4926 15.2061ZM31.9195 15.9518L32.2007 15.5384L32.1987 15.537L31.9195 15.9518ZM32.7421 16.5111L32.461 16.9246L32.6619 17.0613L32.8936 16.9876L32.7421 16.5111ZM33.6486 16.223L33.5037 15.7444L33.4972 15.7465L33.6486 16.223ZM35.1259 15.6468L34.8902 15.2057L34.8813 15.2107L35.1259 15.6468ZM34.5216 17.2738L34.1608 16.9275L34.1544 16.9344L34.5216 17.2738ZM35.4449 17.5958L35.2854 17.1218L35.2771 17.1248L35.4449 17.5958ZM36.15 17.6297L36.5798 17.8852L36.5869 17.8732L36.5933 17.8608L36.15 17.6297ZM34.9748 18.9347L34.6251 18.5774L34.6228 18.5796L34.9748 18.9347ZM32.8428 25.8326L32.3811 25.6406L32.3803 25.6427L32.8428 25.8326ZM27.2526 32.4084L27.5066 32.8391L27.5069 32.8389L27.2526 32.4084ZM16.24 33.6626L16.0907 34.1398L16.0928 34.1404L16.24 33.6626ZM14.3766 32.0355L14.3658 31.5357L14.3654 31.5357L14.3766 32.0355ZM18.8756 30.7814L19.1267 31.2138L19.1323 31.2105L18.8756 30.7814ZM19.7822 30.239L20.0389 30.6681L20.9639 30.1147L19.9439 29.7659L19.7822 30.239ZM18.7413 29.8831L18.5786 30.3559L18.5795 30.3562L18.7413 29.8831ZM15.6021 27.1037L15.1209 27.2398L15.1238 27.2494L15.6021 27.1037ZM16.475 26.7308V27.2309L16.4837 27.2307L16.475 26.7308ZM17.4487 26.7139L17.4574 27.2138L17.6628 26.262L17.4487 26.7139ZM16.6261 26.3241L16.4007 26.7705L16.412 26.7759L16.6261 26.3241ZM14.3262 24.1547L14.7707 23.9257L14.7693 23.9231L14.3262 24.1547ZM13.7219 21.8837L14.0771 22.2355L14.1119 22.2004L14.1391 22.1592L13.7219 21.8837ZM14.5109 22.0701L14.6827 21.6004L14.6703 21.5962L14.5109 22.0701ZM15.1488 21.6803L15.5126 21.3371L15.5064 21.3308L15.1488 21.6803ZM14.108 16.6637L13.6361 16.4981L13.6336 16.5056L14.108 16.6637ZM14.3934 15.8502L14.7459 15.4956L14.1839 14.9368L13.9216 15.6846L14.3934 15.8502ZM15.5013 16.9518L15.1488 17.3064L15.1514 17.3089L15.5013 16.9518ZM23.4922 20.8837L23.4289 21.3797L23.4321 21.3801L23.4922 20.8837ZM1.5 24.6475C1.5 11.6688 12.0213 1.14746 25 1.14746V0.147461C11.469 0.147461 0.5 11.1165 0.5 24.6475H1.5ZM25 48.1475C12.0213 48.1475 1.5 37.6262 1.5 24.6475H0.5C0.5 38.1784 11.469 49.1475 25 49.1475V48.1475ZM48.5 24.6475C48.5 37.6262 37.9787 48.1475 25 48.1475V49.1475C38.531 49.1475 49.5 38.1784 49.5 24.6475H48.5ZM25 1.14746C37.9787 1.14746 48.5 11.6688 48.5 24.6475H49.5C49.5 11.1165 38.531 0.147461 25 0.147461V1.14746ZM23.7821 20.1852L23.8325 21.0157L24.8306 20.9552L24.7803 20.1247L23.7821 20.1852ZM27.384 14.804C25.088 15.6384 23.6148 17.8022 23.7824 20.19L24.78 20.12C24.6454 18.203 25.8246 16.4347 27.7256 15.7439L27.384 14.804ZM30.6261 14.7243C30.1375 14.5889 29.5444 14.536 28.9802 14.5495C28.4178 14.563 27.8411 14.6434 27.3891 14.8022L27.7204 15.7457C28.0407 15.6332 28.5048 15.5612 29.0042 15.5492C29.5018 15.5373 29.9915 15.5861 30.359 15.688L30.6261 14.7243ZM32.1987 15.537C31.7298 15.2214 31.0435 14.8506 30.6375 14.7276L30.3476 15.6847C30.6132 15.7651 31.2027 16.0721 31.6403 16.3666L32.1987 15.537ZM33.0232 16.0977L32.2006 15.5384L31.6384 16.3653L32.461 16.9246L33.0232 16.0977ZM33.4972 15.7465L32.5907 16.0346L32.8936 16.9876L33.8001 16.6995L33.4972 15.7465ZM34.8813 15.2107C34.6275 15.3531 33.9977 15.5949 33.5037 15.7445L33.7936 16.7015C34.3068 16.5461 35.0201 16.2794 35.3705 16.0829L34.8813 15.2107ZM36.1631 15.4604C36.1631 15.3447 36.1235 15.2202 36.0325 15.1186C35.9502 15.0268 35.8554 14.9867 35.7965 14.9689C35.6892 14.9365 35.5956 14.9461 35.5631 14.9498C35.4799 14.9592 35.3982 14.9841 35.339 15.0044C35.2088 15.0492 35.0496 15.1206 34.8902 15.2058L35.3616 16.0877C35.4876 16.0204 35.597 15.9732 35.6641 15.9502C35.7035 15.9366 35.7026 15.9403 35.6756 15.9434C35.6712 15.9439 35.5994 15.954 35.507 15.9261C35.4556 15.9105 35.3665 15.8737 35.2879 15.7861C35.2007 15.6889 35.1631 15.5697 35.1631 15.4604H36.1631ZM34.8824 17.62C35.1719 17.3183 35.4774 16.9081 35.7105 16.5384C35.8277 16.3525 35.9327 16.1671 36.0104 16.0017C36.0492 15.9192 36.0845 15.8347 36.111 15.753C36.1352 15.6786 36.1631 15.5735 36.1631 15.4604H35.1631C35.1631 15.4192 35.1717 15.4079 35.1598 15.4445C35.1503 15.4738 35.133 15.5176 35.1055 15.5762C35.0505 15.6932 34.9677 15.8414 34.8645 16.0051C34.6569 16.3344 34.3917 16.687 34.1608 16.9276L34.8824 17.62ZM35.2771 17.1248C34.9235 17.2508 34.6611 17.3355 34.4758 17.3828C34.3828 17.4065 34.322 17.4175 34.2862 17.4213C34.2367 17.4267 34.2754 17.414 34.3475 17.439C34.3915 17.4543 34.4631 17.4891 34.5261 17.5639C34.5924 17.6428 34.6205 17.7322 34.6262 17.8069C34.6352 17.9257 34.5878 17.9911 34.6061 17.9579C34.6313 17.9119 34.7117 17.8047 34.8887 17.6132L34.1544 16.9344C33.9789 17.1242 33.8201 17.3114 33.7294 17.4769C33.6897 17.5492 33.6151 17.6996 33.6291 17.8829C33.6372 17.9899 33.6758 18.1065 33.7608 18.2076C33.8424 18.3045 33.9408 18.3564 34.02 18.3839C34.1624 18.4332 34.3047 18.4251 34.3934 18.4156C34.4957 18.4045 34.6077 18.3812 34.7231 18.3517C34.9549 18.2925 35.2529 18.195 35.6127 18.0668L35.2771 17.1248ZM36.5933 17.8608C36.6138 17.8215 36.6374 17.776 36.6571 17.7331C36.6745 17.6955 36.7038 17.6288 36.7201 17.5519C36.7334 17.4891 36.7665 17.292 36.6292 17.1053C36.4871 16.9119 36.2808 16.8881 36.2049 16.8845C36.1179 16.8804 36.0377 16.8947 35.9852 16.9058C35.9263 16.9182 35.8625 16.9356 35.7974 16.955C35.6676 16.9936 35.4966 17.0509 35.2854 17.1219L35.6044 18.0697C35.8213 17.9967 35.9734 17.9459 36.0824 17.9135C36.1366 17.8974 36.171 17.8886 36.1917 17.8842C36.219 17.8785 36.1999 17.8854 36.158 17.8834C36.1272 17.882 35.9501 17.8698 35.8236 17.6977C35.702 17.5323 35.7373 17.3662 35.7419 17.3442C35.7496 17.308 35.7594 17.292 35.7488 17.3148C35.7407 17.3324 35.7281 17.3574 35.7066 17.3986L36.5933 17.8608ZM35.3246 19.292C35.61 19.0126 35.8863 18.7206 36.1053 18.4755C36.31 18.2463 36.5002 18.0191 36.5798 17.8852L35.7202 17.3742C35.7206 17.3735 35.7133 17.3853 35.6923 17.4135C35.6729 17.4396 35.6469 17.4728 35.6141 17.5131C35.5486 17.5935 35.462 17.6945 35.3595 17.8093C35.1545 18.0387 34.8936 18.3145 34.6251 18.5774L35.3246 19.292ZM34.4844 20.7481C34.4844 20.355 34.5034 20.2533 34.5664 20.1374C34.6536 19.977 34.8376 19.7749 35.3269 19.2898L34.6228 18.5796C34.172 19.0266 33.8608 19.3415 33.6878 19.6599C33.4906 20.0227 33.4844 20.3617 33.4844 20.7481H34.4844ZM33.3045 26.0245C33.6049 25.3021 33.8978 24.3016 34.1154 23.3368C34.3317 22.3778 34.4844 21.4064 34.4844 20.7481H33.4844C33.4844 21.2932 33.3517 22.1776 33.1399 23.1168C32.9294 24.0502 32.6515 24.9903 32.3811 25.6406L33.3045 26.0245ZM27.5069 32.8389C29.8721 31.4416 32.2087 28.6937 33.3054 26.0225L32.3803 25.6427C31.3617 28.1237 29.1657 30.6974 26.9983 31.9779L27.5069 32.8389ZM16.0928 34.1404C19.8 35.2825 24.1932 34.7933 27.5066 32.8391L26.9986 31.9777C23.9327 33.786 19.8315 34.2458 16.3872 33.1847L16.0928 34.1404ZM12.5 32.1711C12.5 32.2979 12.5457 32.3922 12.5729 32.4392C12.6024 32.4903 12.6352 32.5287 12.6581 32.5532C12.7039 32.6022 12.7545 32.6422 12.7941 32.6714C12.8766 32.7321 12.9817 32.7961 13.0933 32.8589C13.3203 32.9868 13.627 33.1393 13.9635 33.2946C14.6352 33.6046 15.4666 33.9445 16.0907 34.1398L16.3893 33.1854C15.8214 33.0077 15.0328 32.6867 14.3825 32.3866C14.058 32.2368 13.7782 32.0969 13.584 31.9876C13.4849 31.9318 13.4207 31.8909 13.3866 31.8658C13.3679 31.852 13.3733 31.854 13.3885 31.8702C13.3961 31.8783 13.4173 31.9018 13.439 31.9393C13.4583 31.9727 13.5 32.055 13.5 32.1711H12.5ZM14.3654 31.5357C13.9773 31.5444 13.6197 31.5662 13.3544 31.5932C13.2237 31.6065 13.1048 31.6221 13.0124 31.6403C12.9696 31.6487 12.912 31.6615 12.8564 31.6818C12.8318 31.6908 12.7782 31.7116 12.7216 31.751C12.6924 31.7713 12.5 31.9052 12.5 32.1711H13.5C13.5 32.4307 13.3125 32.5581 13.2927 32.5718C13.2456 32.6046 13.2061 32.6187 13.1999 32.621C13.1813 32.6278 13.178 32.6268 13.2053 32.6215C13.253 32.6121 13.3366 32.6002 13.4556 32.5881C13.6897 32.5642 14.0204 32.5437 14.3878 32.5354L14.3654 31.5357ZM18.6246 30.349C17.3557 31.0855 15.8606 31.5036 14.3658 31.5357L14.3873 32.5354C16.0486 32.4997 17.7095 32.0365 19.1266 31.2138L18.6246 30.349ZM19.5255 29.81L18.6189 30.3523L19.1323 31.2105L20.0389 30.6681L19.5255 29.81ZM18.5795 30.3562L19.6204 30.7122L19.9439 29.7659L18.9031 29.41L18.5795 30.3562ZM15.1238 27.2494C15.3276 27.9182 15.8126 28.56 16.4124 29.0904C17.0178 29.6258 17.7755 30.0795 18.5786 30.3559L18.904 29.4104C18.2299 29.1783 17.5858 28.7931 17.0748 28.3413C16.5583 27.8845 16.2123 27.3907 16.0803 26.9579L15.1238 27.2494ZM16.475 26.2308C16.2428 26.2308 16.0507 26.2317 15.9012 26.2397C15.7687 26.2468 15.5979 26.2612 15.4507 26.3244C15.3658 26.361 15.2642 26.4236 15.184 26.5322C15.1018 26.6433 15.072 26.7622 15.065 26.8598C15.0539 27.0157 15.1021 27.1731 15.121 27.2398L16.0832 26.9675C16.0708 26.924 16.0651 26.9012 16.0624 26.8877C16.0594 26.8722 16.0652 26.8923 16.0625 26.9307C16.0592 26.9767 16.0433 27.052 15.9883 27.1264C15.9352 27.1982 15.874 27.2309 15.8457 27.2431C15.8208 27.2538 15.8119 27.2528 15.8368 27.2489C15.8594 27.2453 15.8963 27.2414 15.9545 27.2383C16.0726 27.232 16.2372 27.2308 16.475 27.2308V26.2308ZM17.44 26.2139L16.4663 26.2309L16.4837 27.2307L17.4574 27.2138L17.44 26.2139ZM16.412 26.7759L17.2346 27.1657L17.6628 26.262L16.8402 25.8722L16.412 26.7759ZM13.8817 24.3837C14.3747 25.3407 15.3503 26.2401 16.4008 26.7704L16.8514 25.8777C15.9546 25.425 15.1507 24.6635 14.7707 23.9258L13.8817 24.3837ZM13.3666 21.5318C13.2519 21.6477 13.2233 21.783 13.2146 21.8283C13.2027 21.891 13.2007 21.9499 13.201 21.9939C13.2017 22.0838 13.213 22.1834 13.2277 22.2787C13.2576 22.4734 13.3115 22.7149 13.3769 22.9626C13.5054 23.4489 13.6971 24.0306 13.8831 24.3863L14.7693 23.9231C14.6363 23.6687 14.4671 23.1742 14.3438 22.7072C14.2833 22.4782 14.2386 22.2738 14.2161 22.1269C14.2045 22.0513 14.2011 22.0062 14.201 21.9867C14.2009 21.9759 14.202 21.989 14.1969 22.0157C14.1951 22.0251 14.1772 22.1345 14.0771 22.2355L13.3666 21.5318ZM14.6703 21.5962C14.4663 21.5275 14.2624 21.4631 14.1002 21.4222C14.0221 21.4024 13.9342 21.3831 13.8535 21.3749C13.8156 21.371 13.7529 21.3665 13.6827 21.3759C13.6436 21.3811 13.4364 21.4085 13.3046 21.6081L14.1391 22.1592C14.0738 22.2581 13.9893 22.3086 13.9352 22.3326C13.8819 22.3564 13.8372 22.3642 13.815 22.3671C13.7908 22.3704 13.7729 22.3704 13.765 22.3703C13.7605 22.3702 13.7571 22.3701 13.7551 22.3699C13.753 22.3698 13.7519 22.3697 13.7518 22.3697C13.7518 22.3697 13.7544 22.37 13.76 22.3708C13.7655 22.3717 13.7728 22.373 13.7822 22.3749C13.8013 22.3787 13.8256 22.3842 13.8555 22.3918C13.9787 22.4229 14.1526 22.4771 14.3514 22.544L14.6703 21.5962ZM14.7851 22.0234C14.9508 22.1991 15.0348 22.3058 15.0672 22.3594C15.087 22.3922 15.0586 22.3586 15.0503 22.2816C15.0454 22.2355 15.0462 22.1593 15.0831 22.0736C15.1221 21.983 15.1862 21.9174 15.2517 21.8766C15.3111 21.8396 15.3628 21.8281 15.3858 21.8243C15.41 21.8202 15.4232 21.8212 15.4195 21.8211C15.4105 21.8207 15.3765 21.8173 15.3074 21.8012C15.1712 21.7693 14.9675 21.7047 14.6826 21.6005L14.3391 22.5397C14.6334 22.6473 14.883 22.7289 15.0799 22.7749C15.1774 22.7977 15.28 22.8161 15.3781 22.8202C15.4584 22.8235 15.6241 22.8228 15.7804 22.7254C15.8705 22.6693 15.9521 22.5839 16.0016 22.469C16.0489 22.3591 16.0531 22.254 16.0446 22.1747C16.0292 22.0312 15.9658 21.913 15.9234 21.8427C15.8314 21.6903 15.6825 21.5174 15.5125 21.3372L14.7851 22.0234ZM13.6336 16.5056C12.9759 18.4793 13.3888 20.5951 14.7912 22.0298L15.5064 21.3308C14.3906 20.1894 14.0314 18.4749 14.5823 16.8217L13.6336 16.5056ZM13.9216 15.6846L13.6362 16.4981L14.5798 16.8292L14.8652 16.0157L13.9216 15.6846ZM15.8539 16.5972L14.7459 15.4956L14.0408 16.2047L15.1488 17.3063L15.8539 16.5972ZM23.5555 20.3877C20.613 20.0123 18.0432 18.742 15.8512 16.5946L15.1514 17.3089C17.4921 19.602 20.2607 20.9755 23.4289 21.3797L23.5555 20.3877ZM24.3917 20.489L23.5523 20.3874L23.4321 21.3801L24.2714 21.4818L24.3917 20.489Z" fill="#82B5D1"/>
</svg>
